<?xml version="1.0" encoding="UTF-8" standalone="no"?>
<!-- Created with Inkscape (http://www.inkscape.org/) -->

<svg
   xmlns:dc="http://purl.org/dc/elements/1.1/"
   xmlns:cc="http://creativecommons.org/ns#"
   xmlns:rdf="http://www.w3.org/1999/02/22-rdf-syntax-ns#"
   xmlns:svg="http://www.w3.org/2000/svg"
   xmlns="http://www.w3.org/2000/svg"
   xmlns:sodipodi="http://sodipodi.sourceforge.net/DTD/sodipodi-0.dtd"
   xmlns:inkscape="http://www.inkscape.org/namespaces/inkscape"
   width="80mm"
   height="80mm"
   viewBox="0 0 80 80"
   version="1.1"
   id="svg8"
   inkscape:version="0.92.4 (33fec40, 2019-01-16)"
   sodipodi:docname="instagram.svg">
  <defs
     id="defs2" />
  <sodipodi:namedview
     id="base"
     pagecolor="#ffffff"
     bordercolor="#666666"
     borderopacity="1.0"
     inkscape:pageopacity="0.0"
     inkscape:pageshadow="2"
     inkscape:zoom="1.03"
     inkscape:cx="201.25022"
     inkscape:cy="144.21864"
     inkscape:document-units="mm"
     inkscape:current-layer="layer1"
     showgrid="false"
     inkscape:window-width="1859"
     inkscape:window-height="1056"
     inkscape:window-x="61"
     inkscape:window-y="24"
     inkscape:window-maximized="1" />
  <metadata
     id="metadata5">
    <rdf:RDF>
      <cc:Work
         rdf:about="">
        <dc:format>image/svg+xml</dc:format>
        <dc:type
           rdf:resource="http://purl.org/dc/dcmitype/StillImage" />
        <dc:title></dc:title>
      </cc:Work>
    </rdf:RDF>
  </metadata>
  <g
     inkscape:label="Layer 1"
     inkscape:groupmode="layer"
     id="layer1"
     transform="translate(0,-217)">
    <path
       style="fill:#118ad6;fill-opacity:1;fill-rule:nonzero;stroke:none;stroke-width:0.44999999;stroke-linecap:round;stroke-linejoin:miter;stroke-miterlimit:4;stroke-dasharray:none;stroke-opacity:1"
       d="M 80.000005,257 A 40,40 0 0 1 40,297 40,40 0 0 1 0,257 40,40 0 0 1 40,217 40,40 0 0 1 80.000005,257 Z"
       id="path874"
       inkscape:connector-curvature="0" />
    <flowRoot
       xml:space="preserve"
       id="flowRoot5893"
       style="font-style:normal;font-variant:normal;font-weight:bold;font-stretch:normal;font-size:40px;line-height:1.25;font-family:sans-serif;-inkscape-font-specification:'sans-serif Bold';letter-spacing:0px;word-spacing:0px;fill:#000000;fill-opacity:1;stroke:none"
       transform="matrix(0.26458333,0,0,0.26458333,0,217)"><flowRegion
         id="flowRegion5895"><rect
           id="rect5897"
           width="555.27405"
           height="478.92386"
           x="916.20215"
           y="385.65332" /></flowRegion><flowPara
         id="flowPara5899"></flowPara></flowRoot>    <g
       id="g7182"
       transform="matrix(3.3802019,0,0,3.3802019,-346.06207,-586.71253)"
       style="fill:#fafafa;fill-opacity:1">
      <path
         style="stroke-width:0.26458332;fill:#fafafa;fill-opacity:1"
         id="path6602"
         d="m 114.31027,243.01425 c 2.19605,0 2.46063,0 3.3073,0.0529 0.79375,0.0265 1.24354,0.15875 1.53458,0.29105 0.37042,0.15875 0.66146,0.3175 0.9525,0.60854 0.29104,0.29104 0.47625,0.55562 0.60854,0.9525 0.10583,0.29104 0.23813,0.71437 0.29104,1.53458 0.0265,0.87313 0.0529,1.11125 0.0529,3.30729 0,2.19604 0,2.46063 -0.0529,3.30729 -0.0265,0.79375 -0.15875,1.24355 -0.29104,1.53459 -0.15875,0.37041 -0.3175,0.66146 -0.60854,0.9525 -0.29104,0.29104 -0.55563,0.47625 -0.9525,0.60854 -0.29104,0.10583 -0.71438,0.23812 -1.53458,0.29104 -0.87313,0.0265 -1.11125,0.0529 -3.3073,0.0529 -2.19604,0 -2.46062,0 -3.30729,-0.0529 -0.79375,-0.0265 -1.24354,-0.15875 -1.53458,-0.29104 -0.37042,-0.15875 -0.66146,-0.3175 -0.9525,-0.60854 -0.29104,-0.29104 -0.47625,-0.55563 -0.60854,-0.9525 -0.10584,-0.29104 -0.23813,-0.71438 -0.29104,-1.53459 -0.0265,-0.87312 -0.0265,-1.1377 -0.0265,-3.33375 0,-2.19604 0,-2.46062 0.0529,-3.30729 0.0265,-0.79375 0.15875,-1.24354 0.29105,-1.53458 0.15875,-0.37042 0.3175,-0.66146 0.60854,-0.9525 0.29104,-0.29104 0.55562,-0.47625 0.9525,-0.60854 0.29104,-0.10584 0.71437,-0.23813 1.53458,-0.29104 0.82021,-0.0265 1.08479,-0.0265 3.28083,-0.0265 m 0,-1.48167 c -2.2225,0 -2.51354,0 -3.38666,0.0529 -0.87313,0.0529 -1.48167,0.18521 -1.98438,0.37041 -0.52916,0.21167 -1.00541,0.50271 -1.45521,0.9525 -0.44979,0.4498 -0.74083,0.92605 -0.9525,1.45521 -0.21166,0.52917 -0.34395,1.11125 -0.37041,1.98438 -0.0529,0.87319 -0.0529,1.16423 -0.0529,3.38673 0,2.2225 0,2.51355 0.0529,3.38667 0.0529,0.87313 0.18521,1.48167 0.37041,1.98438 0.21167,0.52916 0.50271,1.00541 0.9525,1.4552 0.4498,0.4498 0.92605,0.74084 1.45521,0.9525 0.52917,0.21167 1.11125,0.34396 1.98438,0.37042 0.87312,0.0529 1.16416,0.0529 3.38666,0.0529 2.2225,0 2.51355,0 3.38667,-0.0529 0.87313,-0.0529 1.48167,-0.18521 1.98438,-0.37042 0.52916,-0.21166 1.00541,-0.5027 1.4552,-0.9525 0.4498,-0.44979 0.74084,-0.92604 0.9525,-1.4552 0.21167,-0.52917 0.34396,-1.11125 0.37042,-1.98438 0.0529,-0.87312 0.0529,-1.16417 0.0529,-3.38667 0,-2.2225 0,-2.51354 -0.0529,-3.38666 -0.0529,-0.87313 -0.18521,-1.48167 -0.37042,-1.98438 -0.21166,-0.52916 -0.5027,-1.00541 -0.9525,-1.45521 -0.44979,-0.44979 -0.92604,-0.74083 -1.4552,-0.9525 -0.52917,-0.21166 -1.11125,-0.34395 -1.98438,-0.37041 -0.87312,-0.0529 -1.16417,-0.0529 -3.38667,-0.0529 z"
         inkscape:connector-curvature="0" />
      <path
         style="stroke-width:0.26458332;fill:#fafafa;fill-opacity:1"
         id="path6604"
         d="m 114.31027,245.52779 c -2.32833,0 -4.20687,1.87854 -4.20687,4.20687 0,2.32834 1.87854,4.20688 4.20687,4.20688 2.32834,0 4.20688,-1.87854 4.20688,-4.20688 0,-2.32833 -1.87854,-4.20687 -4.20688,-4.20687 z m 0,6.93208 c -1.50812,0 -2.7252,-1.21708 -2.7252,-2.72521 0,-1.50812 1.21708,-2.7252 2.7252,-2.7252 1.50813,0 2.72521,1.21708 2.72521,2.7252 0,1.50813 -1.21708,2.72521 -2.72521,2.72521 z"
         inkscape:connector-curvature="0" />
      <circle
         style="stroke-width:0.26458332;fill:#fafafa;fill-opacity:1"
         id="circle6606"
         r="0.97895837"
         cy="245.36903"
         cx="118.6759" />
    </g>
  </g>
</svg>
