<?xml version="1.0" encoding="UTF-8" standalone="no"?>
<!-- Created with Inkscape (http://www.inkscape.org/) -->

<svg
   xmlns:dc="http://purl.org/dc/elements/1.1/"
   xmlns:cc="http://creativecommons.org/ns#"
   xmlns:rdf="http://www.w3.org/1999/02/22-rdf-syntax-ns#"
   xmlns:svg="http://www.w3.org/2000/svg"
   xmlns="http://www.w3.org/2000/svg"
   xmlns:sodipodi="http://sodipodi.sourceforge.net/DTD/sodipodi-0.dtd"
   xmlns:inkscape="http://www.inkscape.org/namespaces/inkscape"
   width="80mm"
   height="80mm"
   viewBox="0 0 80 80"
   version="1.1"
   id="svg8"
   inkscape:version="0.92.4 (33fec40, 2019-01-16)"
   sodipodi:docname="twitter.svg">
  <defs
     id="defs2" />
  <sodipodi:namedview
     id="base"
     pagecolor="#ffffff"
     bordercolor="#666666"
     borderopacity="1.0"
     inkscape:pageopacity="0.0"
     inkscape:pageshadow="2"
     inkscape:zoom="1.6328077"
     inkscape:cx="201.25022"
     inkscape:cy="144.21864"
     inkscape:document-units="mm"
     inkscape:current-layer="layer1"
     showgrid="false"
     inkscape:window-width="1859"
     inkscape:window-height="1056"
     inkscape:window-x="61"
     inkscape:window-y="24"
     inkscape:window-maximized="1" />
  <metadata
     id="metadata5">
    <rdf:RDF>
      <cc:Work
         rdf:about="">
        <dc:format>image/svg+xml</dc:format>
        <dc:type
           rdf:resource="http://purl.org/dc/dcmitype/StillImage" />
        <dc:title></dc:title>
      </cc:Work>
    </rdf:RDF>
  </metadata>
  <g
     inkscape:label="Layer 1"
     inkscape:groupmode="layer"
     id="layer1"
     transform="translate(0,-217)">
    <path
       style="fill:#118ad6;fill-opacity:1;fill-rule:nonzero;stroke:none;stroke-width:0.44999999;stroke-linecap:round;stroke-linejoin:miter;stroke-miterlimit:4;stroke-dasharray:none;stroke-opacity:1"
       d="M 80.000005,257 A 40,40 0 0 1 40,297 40,40 0 0 1 0,257 40,40 0 0 1 40,217 40,40 0 0 1 80.000005,257 Z"
       id="path874"
       inkscape:connector-curvature="0" />
    <path
       style="fill:#fafafa;fill-opacity:1;stroke:none;stroke-width:0.09242633;stroke-opacity:1"
       inkscape:connector-curvature="0"
       id="path917"
       d="m 30.934533,281.24967 c -6.286654,0 -12.399824,-1.79039 -17.680603,-5.18022 -0.492909,-0.31684 -0.701608,-0.93036 -0.505479,-1.48354 0.196128,-0.55326 0.756879,-0.90531 1.332787,-0.82222 4.428331,0.51537 9.050294,-0.38486 12.927949,-2.60273 -3.834861,-1.15172 -6.953048,-4.12166 -8.212912,-8.05948 -0.135774,-0.42498 -0.03771,-0.88766 0.258979,-1.21957 0.181063,-0.2013 0.419893,-0.33698 0.678964,-0.39225 -2.994983,-2.2809 -4.886026,-5.88192 -4.886026,-9.83749 0,-0.44513 0.236427,-0.92537 0.621105,-1.15173 0.384771,-0.22635 0.860027,-0.29668 1.247293,-0.0855 0.110635,0.0628 0.223765,0.1232 0.336987,0.17857 -1.360423,-2.00926 -2.114807,-4.41327 -2.114807,-6.92292 0,-2.17775 0.575816,-4.32518 1.67227,-6.20615 0.206203,-0.35704 0.575816,-0.58839 0.988222,-0.62111 0.409911,-0.0301 0.809747,0.14086 1.071221,0.4577 5.087145,6.23887 12.450104,10.19444 20.391467,11.00668 -0.03522,-0.37969 -0.05278,-0.76695 -0.05278,-1.14923 0,-6.8072 5.539757,-12.34705 12.346956,-12.34705 3.160888,0 6.221309,1.22465 8.504609,3.38724 2.099834,-0.48034 4.111493,-1.28749 5.989966,-2.40151 0.450116,-0.26157 1.013454,-0.22386 1.423273,0.0981 0.407415,0.32691 0.573413,0.8701 0.414902,1.368 -0.399837,1.24979 -0.993214,2.41907 -1.755176,3.46774 0.52304,-0.18106 1.036006,-0.38477 1.541486,-0.60853 0.50548,-0.23135 1.111427,-0.0905 1.471057,0.34197 0.359631,0.42748 0.39235,1.04359 0.083,1.50877 -1.461075,2.17775 -3.241391,4.07628 -5.295936,5.65298 0.0076,0.27155 0.01007,0.54568 0.01007,0.81723 9.3e-5,16.12405 -12.274031,32.80627 -32.808851,32.80627 z"
       sodipodi:nodetypes="ccccccccscccsccccsscccccccccccc" />
  </g>
</svg>
