<?xml version="1.0" encoding="UTF-8" standalone="no"?>
<svg
   xmlns:dc="http://purl.org/dc/elements/1.1/"
   xmlns:cc="http://creativecommons.org/ns#"
   xmlns:rdf="http://www.w3.org/1999/02/22-rdf-syntax-ns#"
   xmlns:svg="http://www.w3.org/2000/svg"
   xmlns="http://www.w3.org/2000/svg"
   id="svg981"
   version="1.1"
   viewBox="-0.25 -0.25 44.38 36.397341"
   height="82"
   width="100">
  <metadata
     id="metadata987">
    <rdf:RDF>
      <cc:Work
         rdf:about="">
        <dc:format>image/svg+xml</dc:format>
        <dc:type
           rdf:resource="http://purl.org/dc/dcmitype/StillImage" />
        <dc:title></dc:title>
      </cc:Work>
    </rdf:RDF>
  </metadata>
  <defs
     id="defs985" />
  <path
     style="fill:#118ad6;fill-opacity:1"
     id="path977"
     stroke-width="0.0200032"
     stroke="#5da8dc"
     fill="#5da8dc"
     d="m 29.317159,-0.23199716 v -0.008001 h 2.080328 l 0.76012,0.15202398 c 0.50676,0.09869557 0.966832,0.22803597 1.380217,0.38806121 0.413426,0.16002524 0.813489,0.34673469 1.20019,0.56008835 0.386741,0.21335372 0.737476,0.43074802 1.052206,0.65210292 0.312049,0.2187145 0.592093,0.4507511 0.840132,0.6961098 0.245319,0.2480391 0.628059,0.3120492 1.148141,0.1920303 0.520082,-0.120019 1.080171,-0.2867253 1.680265,-0.5000789 0.600095,-0.2133537 1.193549,-0.4533915 1.780281,-0.7201136 0.586773,-0.26672211 0.944189,-0.43606882 1.072209,-0.50808018 0.12534,-0.0746518 0.192031,-0.11465809 0.200032,-0.12001893 l 0.008,-0.0120019 0.04001,-0.0200031 0.04001,-0.0200032 0.04001,-0.0200032 0.04001,-0.0200032 0.008,-0.0120019 0.012,-0.008001 0.01204,-0.008001 0.008,-0.0120019 0.04001,-0.0120019 0.04001,-0.008001 -0.008,0.0600095 -0.01204,0.0600095 -0.02,0.0600095 -0.02,0.0600095 -0.02,0.0400063 -0.02,0.0400063 -0.02,0.0600095 C 42.66602,0.82016989 42.6527,0.87349829 42.63933,0.94018884 42.62601,1.0068794 42.499308,1.2735614 42.25927,1.740315 42.019232,2.2070687 41.719185,2.6804633 41.359128,3.1605391 40.999071,3.6406148 40.67638,4.003312 40.391015,4.2487107 c -0.288045,0.2480391 -0.478755,0.4213865 -0.57213,0.520082 -0.09334,0.101336 -0.206672,0.1946708 -0.340053,0.2800442 l -0.200032,0.1320208 -0.04001,0.020003 -0.04001,0.020003 -0.008,0.012002 -0.01204,0.008 -0.012,0.008 -0.008,0.012002 -0.04001,0.020003 -0.04001,0.020003 -0.008,0.012002 -0.01204,0.008 -0.012,0.008 -0.008,0.012002 -0.008,0.012002 -0.01204,0.008 -0.012,0.008 -0.008,0.012002 h 0.200031 l 1.120177,-0.2400379 c 0.746798,-0.1600252 1.46023,-0.3533757 2.140338,-0.5800915 l 1.08017,-0.3600568 0.120019,-0.040006 0.06001,-0.020003 0.04001,-0.020003 0.04001,-0.020003 0.04001,-0.020003 0.04001,-0.020003 0.08001,-0.012002 0.08001,-0.008 v 0.080013 l -0.02,0.008 -0.02,0.012002 -0.008,0.012002 -0.01204,0.008 -0.012,0.008 -0.008,0.012002 -0.008,0.012002 -0.01204,0.008 -0.012,0.008 -0.008,0.012002 -0.008,0.012002 -0.01204,0.008 -0.02,0.040006 -0.02,0.040006 -0.012,0.008 c -0.0053,0.008 -0.174668,0.2346771 -0.508081,0.6801073 -0.333372,0.4480707 -0.513401,0.6747464 -0.540085,0.6801073 -0.02664,0.008 -0.06401,0.048008 -0.112017,0.1200189 -0.04533,0.074652 -0.328052,0.3720587 -0.848134,0.8921407 -0.520082,0.5200821 -1.029443,0.9827951 -1.528201,1.388219 -0.501399,0.4080644 -0.754799,0.9094635 -0.76012,1.5042373 -0.008,0.592093 -0.03869,1.261559 -0.09205,2.008316 -0.05333,0.746798 -0.153344,1.553566 -0.300047,2.420382 -0.146663,0.866817 -0.373379,1.846972 -0.680107,2.940464 -0.306689,1.093493 -0.680108,2.160341 -1.120177,3.200505 -0.440069,1.040164 -0.900142,1.973631 -1.380218,2.800442 -0.480075,0.82681 -0.920145,1.526921 -1.320208,2.100331 -0.400063,0.57341 -0.806767,1.113496 -1.220192,1.620256 -0.413386,0.506759 -0.936108,1.077529 -1.568208,1.71227 -0.63478,0.632099 -0.981475,0.978834 -1.040164,1.040164 -0.06133,0.05869 -0.322691,0.277403 -0.784164,0.656103 -0.458712,0.38138 -0.95215,0.76276 -1.480233,1.144181 -0.525403,0.378739 -1.008159,0.694789 -1.448228,0.948149 -0.44007,0.25336 -0.970794,0.542726 -1.592252,0.868137 -0.618737,0.328052 -1.288203,0.6321 -2.008316,0.912144 -0.720114,0.280044 -1.480234,0.540085 -2.28036,0.780123 -0.800126,0.240038 -1.573568,0.426747 -2.320366,0.560088 -0.746758,0.133341 -1.593571,0.246719 -2.540401,0.340054 l -1.420224,0.140022 v 0.02 h -2.60041 v -0.02 l -0.340054,-0.02 c -0.226554,-0.01331 -0.413264,-0.02667 -0.559967,-0.04 -0.146663,-0.01332 -0.70011,-0.08669 -1.6602621,-0.220031 C 8.8339275,35.372299 8.0804886,35.238918 7.5337224,35.105577 6.9869961,34.972236 6.1735078,34.718836 5.0933374,34.345457 4.0131671,33.972078 3.0890213,33.594659 2.3209001,33.213278 1.5554594,32.834539 1.0753837,32.594501 0.88067296,32.493165 0.68864267,32.394469 0.4726086,32.27181 0.23257073,32.125107 l -0.36005679,-0.220035 -0.007961,-0.012 -0.0120419,-0.008 -0.0120019,-0.008 -0.008001,-0.012 -0.0400063,-0.02 -0.0400063,-0.02 -0.007961,-0.012 -0.0120419,-0.008 -0.0120019,-0.008 -0.008001,-0.012 -0.007961,-0.012 -0.0120419,-0.008 h -0.0200031 v -0.08001 l 0.0400063,0.008 0.0400063,0.012 0.1800284,0.02 c 0.12001893,0.01332 0.44675046,0.03332 0.98015457,0.06001 0.53344409,0.02668 1.10017349,0.02668 1.70026819,0 0.6000947,-0.02668 1.2135514,-0.08669 1.8402903,-0.180028 0.6267788,-0.09333 1.3668956,-0.25336 2.2203502,-0.480076 0.8534946,-0.226716 1.6376183,-0.496078 2.3524111,-0.808127 0.7121123,-0.31469 1.2188329,-0.549407 1.5202409,-0.704112 0.298687,-0.152024 0.754759,-0.434748 1.368176,-0.848133 l 0.920145,-0.620098 0.008,-0.012 0.012,-0.008 0.01204,-0.008 0.008,-0.012 0.008,-0.012 0.012,-0.008 0.01204,-0.008 0.008,-0.012 0.04001,-0.012 0.04001,-0.008 0.008,-0.04001 0.012,-0.04001 0.01204,-0.008 0.008,-0.012 -0.32005,-0.02 c -0.213354,-0.01332 -0.420066,-0.02668 -0.620098,-0.04001 -0.200032,-0.01332 -0.513401,-0.07333 -0.940148,-0.180029 C 10.727586,27.597713 10.267514,27.437687 9.7740758,27.224334 9.2806779,27.01098 8.8006022,26.75758 8.3338486,26.464214 7.867135,26.170848 7.5297218,25.926769 7.3216889,25.732098 7.1163365,25.540028 6.8496145,25.268025 6.5215627,24.91597 6.1961914,24.561274 5.9134668,24.197176 5.6734289,23.823797 5.4333911,23.450418 5.2040349,23.01963 4.9853604,22.531594 L 4.653268,21.803479 4.633265,21.743469 4.613262,21.683459 4.60126,21.643449 l -0.008,-0.04001 0.060009,0.008 0.06001,0.012 0.4400694,0.06001 c 0.2934063,0.04001 0.7534789,0.05333 1.3802177,0.04001 0.6267789,-0.01332 1.0601673,-0.04001 1.3002051,-0.08001 0.2400379,-0.04001 0.386741,-0.06669 0.4400694,-0.08001 l 0.080013,-0.02 0.1000157,-0.02 0.1000158,-0.02 0.008,-0.012 0.012002,-0.008 0.012042,-0.008 0.00796,-0.012 -0.080013,-0.02 -0.080013,-0.02 -0.080013,-0.02 -0.080013,-0.02 -0.080013,-0.02 C 8.1404981,21.350087 8.0471634,21.323403 7.9137823,21.283397 7.7804413,21.24339 7.4203845,21.096687 6.833612,20.843327 6.2468794,20.589967 5.7801258,20.343248 5.4333911,20.10321 A 9.6695252,9.6695252 0 0 1 4.4412346,19.315086 C 4.1291854,19.027041 3.7864913,18.656302 3.4130724,18.202911 3.0396935,17.749519 2.7063209,17.222756 2.4129146,16.622661 2.1195484,16.022567 1.8995137,15.449156 1.7528105,14.90239 A 9.2871849,9.2871849 0 0 1 1.4648051,13.242128 l -0.072051,-0.840132 0.040006,0.008 0.040006,0.012 0.040006,0.02 0.040006,0.02 0.040006,0.02 0.040006,0.02 0.6200978,0.280045 c 0.4134252,0.186709 0.9268262,0.346734 1.540243,0.480075 0.6134567,0.133341 0.9801546,0.206713 1.1001735,0.220035 l 0.1800284,0.02 h 0.3600568 l -0.00796,-0.012 -0.012042,-0.008 -0.012002,-0.008 -0.008,-0.012 -0.00796,-0.012 -0.012042,-0.008 -0.012002,-0.008 -0.008,-0.012 -0.040006,-0.02 -0.040006,-0.02 -0.00796,-0.012 -0.012042,-0.008 -0.012002,-0.008 -0.008,-0.012 -0.040006,-0.02 -0.040006,-0.02 -0.00796,-0.012 c -0.008,-0.0054 -0.1226994,-0.0907 -0.3440943,-0.256041 C 4.5825769,12.866069 4.3532207,12.648715 4.1131828,12.381993 3.873145,12.11527 3.6331071,11.835226 3.3930693,11.54186 A 6.4873433,6.4873433 0 0 1 2.7529683,10.601712 C 2.5662988,10.268339 2.3689077,9.8442322 2.1608749,9.329511 1.9555225,8.8174303 1.7994979,8.3013489 1.6928011,7.7812668 1.5861442,7.2611848 1.5261348,6.7477838 1.5127727,6.2410239 c -0.013322,-0.50676 0,-0.9401483 0.040006,-1.3002051 C 1.5927853,4.580762 1.6727979,4.1740178 1.7928168,3.7206263 1.9128358,3.2672348 2.0862231,2.7871591 2.3128989,2.2803991 l 0.3400536,-0.7601199 0.020003,-0.060009 0.020003,-0.06001 0.012042,-0.008 0.00796,-0.012002 0.008,-0.012002 0.012002,-0.008 0.012042,0.008 0.00796,0.012002 0.008,0.012002 0.012002,0.008 0.012042,0.008 0.00796,0.012002 0.008,0.012002 0.012002,0.008 0.020003,0.040006 0.020003,0.040006 0.012042,0.008 0.00796,0.012002 0.5400852,0.6000947 c 0.3600568,0.4000631 0.7868041,0.8468135 1.2802019,1.3402114 0.4934379,0.4933978 0.766801,0.7494382 0.8201294,0.7681211 0.053368,0.021323 0.1200189,0.082653 0.2000316,0.184029 0.080013,0.098696 0.3467347,0.3347328 0.8001262,0.7081117 0.4534315,0.3733789 1.0468451,0.8068073 1.7802808,1.3002051 0.7334757,0.4933979 1.546924,0.9801546 2.4403844,1.4602304 0.893501,0.4800757 1.853653,0.913464 2.880455,1.3002051 1.026842,0.386741 1.746955,0.6401009 2.160341,0.7601198 0.413425,0.1200195 1.120176,0.2733635 2.120334,0.4600725 1.000158,0.18671 1.753637,0.306729 2.260357,0.360057 0.506759,0.05333 0.853494,0.08401 1.040164,0.09201 l 0.280044,0.008 -0.008,-0.06001 -0.01204,-0.06001 -0.08001,-0.500079 c -0.05333,-0.3333727 -0.08001,-0.8001263 -0.08001,-1.400221 0,-0.6000946 0.04669,-1.1535019 0.140022,-1.6602619 0.09337,-0.5067599 0.233397,-1.0201609 0.420067,-1.5402429 0.186709,-0.5200821 0.369418,-0.9375079 0.548086,-1.2521975 0.181389,-0.3120493 0.418746,-0.6681054 0.712113,-1.0681685 0.293406,-0.4000631 0.673466,-0.8134483 1.140179,-1.2401957 0.466754,-0.4267473 1.000158,-0.8068072 1.600253,-1.14017981 0.600094,-0.33337258 1.153542,-0.58677255 1.660262,-0.7601199 0.50676,-0.17334734 0.933507,-0.28672522 1.280202,-0.34005364 0.346734,-0.0533284 0.520082,-0.0840133 0.520082,-0.0920145 z" />
</svg>
