<?xml version="1.0" encoding="UTF-8" standalone="no"?>
<svg
   xmlns:dc="http://purl.org/dc/elements/1.1/"
   xmlns:cc="http://creativecommons.org/ns#"
   xmlns:rdf="http://www.w3.org/1999/02/22-rdf-syntax-ns#"
   xmlns:svg="http://www.w3.org/2000/svg"
   xmlns="http://www.w3.org/2000/svg"
   id="svg903"
   version="1.1"
   viewBox="1.786 1.783 80.6022 81.200665"
   height="705"
   width="700">
  <metadata
     id="metadata909">
    <rdf:RDF>
      <cc:Work
         rdf:about="">
        <dc:format>image/svg+xml</dc:format>
        <dc:type
           rdf:resource="http://purl.org/dc/dcmitype/StillImage" />
        <dc:title></dc:title>
      </cc:Work>
    </rdf:RDF>
  </metadata>
  <defs
     id="defs907" />
  <path
     style="fill:none;stroke:#118ad6;stroke-width:4.38055;stroke-miterlimit:4;stroke-dasharray:none;stroke-opacity:1"
     id="path895"
     fill="#069"
     d="m 3.9359658,9.4696057 c 0,-3.0339501 2.5237635,-5.4963302 5.6351975,-5.4963302 H 74.544991 c 3.11244,0 5.635197,2.4623801 5.635197,5.4963302 V 75.205191 c 0,3.034957 -2.522757,5.495324 -5.635197,5.495324 H 9.5711633 c -3.111434,0 -5.6351975,-2.460367 -5.6351975,-5.494317 V 9.4685994 Z" />
  <path
     style="fill:#118ad6;fill-opacity:1;stroke-width:1.00629"
     id="path901"
     fill="#ffffff"
     d="M 27.048326,68.201446 V 33.555044 H 15.532397 V 68.201446 H 27.049332 Z M 21.292374,28.825503 c 4.015078,0 6.514691,-2.660618 6.514691,-5.985385 -0.07547,-3.400238 -2.499613,-5.986391 -6.438213,-5.986391 -3.94162,0 -6.515697,2.586153 -6.515697,5.986391 0,3.324767 2.498606,5.985385 6.363748,5.985385 h 0.07447 z M 33.422137,68.201446 H 44.937059 V 48.855611 c 0,-1.034461 0.07547,-2.070935 0.37937,-2.809548 0.832198,-2.069929 2.727033,-4.21231 5.908907,-4.21231 4.166021,0 5.833436,3.176842 5.833436,7.834937 V 68.201446 H 68.573694 V 48.336368 c 0,-10.641467 -5.68048,-15.593397 -13.256802,-15.593397 -6.211799,0 -8.939839,3.471685 -10.455304,5.836455 h 0.07648 V 33.55605 H 33.423143 c 0.149937,3.250301 -0.001,34.646402 -0.001,34.646402 z" />
</svg>
