<?xml version="1.0" encoding="UTF-8" standalone="no"?>
<!-- Created with Inkscape (http://www.inkscape.org/) -->

<svg
   xmlns:dc="http://purl.org/dc/elements/1.1/"
   xmlns:cc="http://creativecommons.org/ns#"
   xmlns:rdf="http://www.w3.org/1999/02/22-rdf-syntax-ns#"
   xmlns:svg="http://www.w3.org/2000/svg"
   xmlns="http://www.w3.org/2000/svg"
   xmlns:sodipodi="http://sodipodi.sourceforge.net/DTD/sodipodi-0.dtd"
   xmlns:inkscape="http://www.inkscape.org/namespaces/inkscape"
   width="45.73mm"
   height="8.9499998mm"
   viewBox="0 0 45.73 8.9499998"
   version="1.1"
   id="svg8"
   inkscape:version="0.92.4 (f8dce91, 2019-08-02)"
   sodipodi:docname="lugocorp-logo.svg">
  <defs
     id="defs2" />
  <sodipodi:namedview
     id="base"
     pagecolor="#ffffff"
     bordercolor="#666666"
     borderopacity="1.0"
     inkscape:pageopacity="0.0"
     inkscape:pageshadow="2"
     inkscape:zoom="4.304635"
     inkscape:cx="103.19287"
     inkscape:cy="30.363255"
     inkscape:document-units="mm"
     inkscape:current-layer="layer1"
     showgrid="false"
     inkscape:window-width="1859"
     inkscape:window-height="1056"
     inkscape:window-x="61"
     inkscape:window-y="24"
     inkscape:window-maximized="1" />
  <metadata
     id="metadata5">
    <rdf:RDF>
      <cc:Work
         rdf:about="">
        <dc:format>image/svg+xml</dc:format>
        <dc:type
           rdf:resource="http://purl.org/dc/dcmitype/StillImage" />
        <dc:title />
      </cc:Work>
    </rdf:RDF>
  </metadata>
  <g
     inkscape:label="Layer 1"
     inkscape:groupmode="layer"
     id="layer1"
     transform="translate(0,-288.05)">
    <g
       aria-label="Lugo"
       style="font-style:normal;font-variant:normal;font-weight:bold;font-stretch:normal;font-size:10.58333302px;line-height:1.25;font-family:sans-serif;-inkscape-font-specification:'sans-serif Bold';letter-spacing:0px;word-spacing:0px;fill:#118ad6;fill-opacity:1;stroke:#454545;stroke-width:0.44999999;stroke-miterlimit:4;stroke-dasharray:none;stroke-opacity:1"
       id="text817">
      <path
         d="m 1.20925,294.89073 q -0.45508335,0 -0.71966667,-0.26459 Q 0.225,294.36156 0.225,293.90648 v -5.47158 q 0.11641667,-0.0212 0.37041666,-0.0529 0.25399999,-0.0423 0.48683334,-0.0423 0.2434166,0 0.4233333,0.0423 0.1905,0.0317 0.3175,0.127 0.127,0.0952 0.1905,0.26458 0.0635,0.16934 0.0635,0.4445 v 4.18042 h 2.4235832 q 0.074083,0.11641 0.1375834,0.3175 0.0635,0.1905 0.0635,0.40216 0,0.42334 -0.1799167,0.60325 -0.1799167,0.16934 -0.47625,0.16934 z"
         style="font-style:normal;font-variant:normal;font-weight:normal;font-stretch:normal;font-family:Baloo;-inkscape-font-specification:Baloo;fill:#118ad6;fill-opacity:1;stroke:#454545;stroke-width:0.44999999;stroke-miterlimit:4;stroke-dasharray:none;stroke-opacity:1"
         id="path2641"
         inkscape:connector-curvature="0" />
      <path
         d="m 5.3170715,289.78956 q 0.1058333,-0.0317 0.3280833,-0.0635 0.2328333,-0.0318 0.47625,-0.0318 0.2328333,0 0.41275,0.0318 0.1905,0.0317 0.3175,0.127 0.1269999,0.0952 0.1904999,0.26459 0.074083,0.15875 0.074083,0.42333 v 2.27541 q 0,0.43392 0.2116666,0.62442 0.2116667,0.17992 0.6138334,0.17992 0.2434166,0 0.3915833,-0.0423 0.15875,-0.0423 0.2434166,-0.0847 v -3.70417 q 0.1058334,-0.0317 0.3280834,-0.0635 0.2328333,-0.0318 0.4762499,-0.0318 0.2328334,0 0.41275,0.0318 0.1905,0.0317 0.3175001,0.127 0.127,0.0952 0.1905,0.26459 0.07408,0.15875 0.07408,0.42333 v 3.21733 q 0,0.52917 -0.4445007,0.79375 -0.3704167,0.23283 -0.889,0.34925 -0.508,0.127 -1.11125,0.127 -0.5715,0 -1.0583333,-0.127 -0.47625,-0.127 -0.8255,-0.39158 -0.3492499,-0.26459 -0.5397499,-0.67734 -0.1905,-0.42333 -0.1905,-1.016 z"
         style="font-style:normal;font-variant:normal;font-weight:normal;font-stretch:normal;font-family:Baloo;-inkscape-font-specification:Baloo;fill:#118ad6;fill-opacity:1;stroke:#454545;stroke-width:0.44999999;stroke-miterlimit:4;stroke-dasharray:none;stroke-opacity:1"
         id="path2643"
         inkscape:connector-curvature="0" />
      <path
         d="m 13.985152,289.55673 q 0.60325,0 1.090083,0.15875 0.497417,0.14817 0.836084,0.39158 0.211666,0.14817 0.328083,0.32809 0.127,0.17991 0.127,0.46566 v 3.70417 q 0,0.56091 -0.211667,0.96308 -0.211666,0.41275 -0.582083,0.67733 -0.359833,0.27517 -0.85725,0.40217 -0.486833,0.127 -1.04775,0.127 -0.963083,0 -1.513417,-0.26458 -0.550333,-0.254 -0.550333,-0.83609 0,-0.24341 0.09525,-0.43391 0.105833,-0.17992 0.232833,-0.27517 0.306917,0.16933 0.687917,0.28575 0.391583,0.11642 0.804333,0.11642 0.5715,0 0.910167,-0.1905 0.338667,-0.1905 0.338667,-0.61384 v -0.16933 q -0.433917,0.1905 -1.058334,0.1905 -0.47625,0 -0.910166,-0.13758 -0.423334,-0.14817 -0.751417,-0.4445 -0.3175,-0.30692 -0.518583,-0.78317 -0.1905,-0.47625 -0.1905,-1.13241 0,-0.64559 0.201083,-1.12184 0.211667,-0.47625 0.5715,-0.78316 0.370417,-0.3175 0.867833,-0.46567 0.508,-0.15875 1.100667,-0.15875 z m 0.656167,1.53458 q -0.07408,-0.0423 -0.22225,-0.0847 -0.137584,-0.0423 -0.34925,-0.0423 -0.518584,0 -0.783167,0.29634 -0.254,0.28575 -0.254,0.8255 0,0.61383 0.254,0.88899 0.264583,0.26459 0.66675,0.26459 0.433917,0 0.687917,-0.20109 z"
         style="font-style:normal;font-variant:normal;font-weight:normal;font-stretch:normal;font-family:Baloo;-inkscape-font-specification:Baloo;fill:#118ad6;fill-opacity:1;stroke:#454545;stroke-width:0.44999999;stroke-miterlimit:4;stroke-dasharray:none;stroke-opacity:1"
         id="path2645"
         inkscape:connector-curvature="0" />
      <path
         d="m 22.794784,292.28723 q 0,0.65616 -0.201083,1.17475 -0.201083,0.508 -0.5715,0.85725 -0.359833,0.34925 -0.867833,0.52916 -0.508,0.17992 -1.132417,0.17992 -0.624417,0 -1.132417,-0.1905 -0.507999,-0.1905 -0.878416,-0.53975 -0.359833,-0.35983 -0.560917,-0.86783 -0.201083,-0.508 -0.201083,-1.143 0,-0.62442 0.201083,-1.13242 0.201084,-0.508 0.560917,-0.85725 0.370417,-0.35983 0.878416,-0.55033 0.508,-0.1905 1.132417,-0.1905 0.624417,0 1.132417,0.20108 0.508,0.1905 0.867833,0.55034 0.370417,0.34925 0.5715,0.85725 0.201083,0.508 0.201083,1.12183 z m -3.704166,0 q 0,0.64558 0.243416,0.99483 0.254,0.33867 0.6985,0.33867 0.4445,0 0.677334,-0.34925 0.243416,-0.34925 0.243416,-0.98425 0,-0.635 -0.243416,-0.97367 -0.243417,-0.34925 -0.687917,-0.34925 -0.4445,0 -0.687917,0.34925 -0.243416,0.33867 -0.243416,0.97367 z"
         style="font-style:normal;font-variant:normal;font-weight:normal;font-stretch:normal;font-family:Baloo;-inkscape-font-specification:Baloo;fill:#118ad6;fill-opacity:1;stroke:#454545;stroke-width:0.44999999;stroke-miterlimit:4;stroke-dasharray:none;stroke-opacity:1"
         id="path2647"
         inkscape:connector-curvature="0" />
    </g>
    <g
       aria-label="Corp"
       style="font-style:normal;font-variant:normal;font-weight:normal;font-stretch:normal;font-size:10.58333302px;line-height:1.25;font-family:Baloo;-inkscape-font-specification:Baloo;letter-spacing:0px;word-spacing:0px;fill:#fafafa;fill-opacity:1;stroke:#454545;stroke-width:0.44999999;stroke-miterlimit:4;stroke-dasharray:none;stroke-opacity:1"
       id="text821">
      <path
         d="m 27.2675,289.76884 q -0.814916,0 -1.248833,0.49742 -0.433917,0.49741 -0.433917,1.40758 0,0.92075 0.47625,1.41817 0.486834,0.49741 1.30175,0.49741 0.433917,0 0.73025,-0.11641 0.306917,-0.11642 0.582084,-0.26459 0.179916,0.14817 0.275166,0.35984 0.105834,0.20108 0.105834,0.47625 0,0.43391 -0.486834,0.74083 -0.47625,0.29633 -1.4605,0.29633 -0.709083,0 -1.3335,-0.20108 -0.624416,-0.20108 -1.090083,-0.61383 -0.465667,-0.42334 -0.740833,-1.05834 -0.264584,-0.64558 -0.264584,-1.53458 0,-0.8255 0.254,-1.44992 0.264584,-0.635 0.709084,-1.06891 0.455083,-0.43392 1.058333,-0.65617 0.60325,-0.22225 1.291167,-0.22225 0.973666,0 1.502833,0.3175 0.53975,0.3175 0.53975,0.81492 0,0.27516 -0.137583,0.47625 -0.137584,0.20108 -0.3175,0.3175 -0.275167,-0.17992 -0.592667,-0.30692 -0.306917,-0.127 -0.719667,-0.127 z"
         style="font-style:normal;font-variant:normal;font-weight:normal;font-stretch:normal;font-family:Baloo;-inkscape-font-specification:Baloo;fill:#fafafa;fill-opacity:1;stroke:#454545;stroke-width:0.44999999;stroke-miterlimit:4;stroke-dasharray:none;stroke-opacity:1"
         id="path2632"
         inkscape:connector-curvature="0" />
      <path
         d="m 35.074197,292.31942 q 0,0.65617 -0.201083,1.17475 -0.201084,0.508 -0.5715,0.85725 -0.359834,0.34925 -0.867834,0.52917 -0.508,0.17992 -1.132416,0.17992 -0.624417,0 -1.132417,-0.1905 -0.508,-0.1905 -0.878417,-0.53975 -0.359833,-0.35984 -0.560916,-0.86784 -0.201084,-0.508 -0.201084,-1.143 0,-0.62441 0.201084,-1.13241 0.201083,-0.508 0.560916,-0.85725 0.370417,-0.35984 0.878417,-0.55034 0.508,-0.1905 1.132417,-0.1905 0.624416,0 1.132416,0.20109 0.508,0.1905 0.867834,0.55033 0.370416,0.34925 0.5715,0.85725 0.201083,0.508 0.201083,1.12183 z m -3.704167,0 q 0,0.64559 0.243417,0.99484 0.254,0.33866 0.6985,0.33866 0.4445,0 0.677333,-0.34925 0.243417,-0.34925 0.243417,-0.98425 0,-0.635 -0.243417,-0.97366 -0.243416,-0.34925 -0.687916,-0.34925 -0.4445,0 -0.687917,0.34925 -0.243417,0.33866 -0.243417,0.97366 z"
         style="font-style:normal;font-variant:normal;font-weight:normal;font-stretch:normal;font-family:Baloo;-inkscape-font-specification:Baloo;fill:#fafafa;fill-opacity:1;stroke:#454545;stroke-width:0.44999999;stroke-miterlimit:4;stroke-dasharray:none;stroke-opacity:1"
         id="path2634"
         inkscape:connector-curvature="0" />
      <path
         d="m 37.751119,294.88059 q -0.105833,0.0317 -0.338667,0.0635 -0.22225,0.0317 -0.465666,0.0317 -0.232834,0 -0.423334,-0.0317 -0.179916,-0.0318 -0.306916,-0.127 -0.127,-0.0953 -0.201084,-0.254 -0.0635,-0.16933 -0.0635,-0.43392 v -3.175 q 0,-0.24341 0.08467,-0.41275 0.09525,-0.17991 0.264583,-0.3175 0.169334,-0.13758 0.41275,-0.24341 0.254,-0.11642 0.53975,-0.20109 0.28575,-0.0847 0.592667,-0.127 0.306917,-0.0529 0.613833,-0.0529 0.508,0 0.804334,0.20108 0.296333,0.1905 0.296333,0.635 0,0.14817 -0.04233,0.29633 -0.04233,0.13759 -0.105834,0.254 -0.22225,0 -0.455083,0.0212 -0.232833,0.0212 -0.455083,0.0635 -0.22225,0.0423 -0.423334,0.0953 -0.1905,0.0423 -0.328083,0.10583 z"
         style="font-style:normal;font-variant:normal;font-weight:normal;font-stretch:normal;font-family:Baloo;-inkscape-font-specification:Baloo;fill:#fafafa;fill-opacity:1;stroke:#454545;stroke-width:0.44999999;stroke-miterlimit:4;stroke-dasharray:none;stroke-opacity:1"
         id="path2636"
         inkscape:connector-curvature="0" />
      <path
         d="m 42.549502,289.58892 q 0.635,0 1.17475,0.16934 0.550334,0.15875 0.941917,0.49741 0.391583,0.33867 0.613833,0.85725 0.22225,0.508 0.22225,1.21709 0,0.67733 -0.1905,1.18533 -0.1905,0.508 -0.53975,0.85725 -0.34925,0.33867 -0.846666,0.508 -0.486834,0.16933 -1.090084,0.16933 -0.455083,0 -0.846666,-0.13758 v 1.75683 q -0.105834,0.0317 -0.338667,0.0635 -0.232833,0.0423 -0.47625,0.0423 -0.232833,0 -0.423333,-0.0317 -0.179917,-0.0318 -0.306917,-0.127 -0.127,-0.0953 -0.1905,-0.26459 -0.0635,-0.15875 -0.0635,-0.42333 v -5.08 q 0,-0.28575 0.116417,-0.46567 0.127,-0.17991 0.338666,-0.32808 0.328084,-0.21167 0.814917,-0.33867 0.486833,-0.127 1.090083,-0.127 z m 0.02117,4.04284 q 1.090083,0 1.090083,-1.30175 0,-0.67734 -0.275166,-1.00542 -0.264584,-0.32808 -0.772584,-0.32808 -0.201083,0 -0.359833,0.0529 -0.15875,0.0423 -0.275167,0.10584 v 2.32833 q 0.127,0.0635 0.275167,0.10583 0.148167,0.0423 0.3175,0.0423 z"
         style="font-style:normal;font-variant:normal;font-weight:normal;font-stretch:normal;font-family:Baloo;-inkscape-font-specification:Baloo;fill:#fafafa;fill-opacity:1;stroke:#454545;stroke-width:0.44999999;stroke-miterlimit:4;stroke-dasharray:none;stroke-opacity:1"
         id="path2638"
         inkscape:connector-curvature="0" />
    </g>
  </g>
</svg>
