<?xml version="1.0" encoding="UTF-8" standalone="no"?>
<!-- Created with Inkscape (http://www.inkscape.org/) -->

<svg
   xmlns:dc="http://purl.org/dc/elements/1.1/"
   xmlns:cc="http://creativecommons.org/ns#"
   xmlns:rdf="http://www.w3.org/1999/02/22-rdf-syntax-ns#"
   xmlns:svg="http://www.w3.org/2000/svg"
   xmlns="http://www.w3.org/2000/svg"
   xmlns:sodipodi="http://sodipodi.sourceforge.net/DTD/sodipodi-0.dtd"
   xmlns:inkscape="http://www.inkscape.org/namespaces/inkscape"
   width="290mm"
   height="126mm"
   viewBox="0 0 290 126"
   version="1.1"
   id="svg8"
   inkscape:version="0.92.4 (f8dce91, 2019-08-02)"
   sodipodi:docname="newer.svg"
   inkscape:export-filename="/home/alexander/Desktop/haystack.png"
   inkscape:export-xdpi="96"
   inkscape:export-ydpi="96">
  <defs
     id="defs2" />
  <sodipodi:namedview
     id="base"
     pagecolor="#ffffff"
     bordercolor="#666666"
     borderopacity="1.0"
     inkscape:pageopacity="0.0"
     inkscape:pageshadow="2"
     inkscape:zoom="0.68"
     inkscape:cx="357.9994"
     inkscape:cy="514.50819"
     inkscape:document-units="mm"
     inkscape:current-layer="layer1"
     showgrid="false"
     inkscape:window-width="1859"
     inkscape:window-height="1056"
     inkscape:window-x="61"
     inkscape:window-y="24"
     inkscape:window-maximized="1" />
  <metadata
     id="metadata5">
    <rdf:RDF>
      <cc:Work
         rdf:about="">
        <dc:format>image/svg+xml</dc:format>
        <dc:type
           rdf:resource="http://purl.org/dc/dcmitype/StillImage" />
        <dc:title />
      </cc:Work>
    </rdf:RDF>
  </metadata>
  <g
     inkscape:label="Layer 1"
     inkscape:groupmode="layer"
     id="layer1"
     transform="translate(0,-171)">
    <path
       style="fill:#000000;fill-opacity:1;stroke:none;stroke-width:0.37885624px;stroke-linecap:butt;stroke-linejoin:miter;stroke-opacity:1"
       d="m 65.153224,297 20.22417,-108.82735 c 2.326416,-8.70507 3.804131,-17.66381 12.09847,-15.43319 6.106586,1.81514 3.012476,11.74153 0.44697,19.18853 z"
       id="path825"
       inkscape:connector-curvature="0"
       sodipodi:nodetypes="ccccc" />
    <path
       inkscape:connector-curvature="0"
       id="path916"
       style="font-style:normal;font-variant:normal;font-weight:bold;font-stretch:normal;font-size:40px;line-height:1.25;font-family:'Coda ExtraBold';-inkscape-font-specification:'Coda ExtraBold, Bold';letter-spacing:0px;word-spacing:0px;fill:#000000;fill-opacity:1;stroke:none;stroke-width:1.1852684"
       d="m 33.288855,175.67756 v 36.9239 H 19.306363 v -15.92705 h -4.46787 v 15.92705 H 0.85600084 v -36.9239 H 14.838493 v 15.9039 h 4.46787 v -15.9039 z" />
    <path
       inkscape:connector-curvature="0"
       id="path918"
       style="font-style:normal;font-variant:normal;font-weight:bold;font-stretch:normal;font-size:40px;line-height:1.25;font-family:'Coda ExtraBold';-inkscape-font-specification:'Coda ExtraBold, Bold';letter-spacing:0px;word-spacing:0px;fill:#000000;fill-opacity:1;stroke:none;stroke-width:1.1852684"
       d="m 53.49863,182.90029 h -0.439853 l -1.782525,16.3669 h 4.120585 z m -2.639119,21.22835 -1.273215,8.47282 H 36.020544 l 6.759704,-36.9239 h 20.996911 l 6.875386,36.9239 H 57.06368 l -1.250102,-8.47282 z" />
    <path
       inkscape:connector-curvature="0"
       id="path920"
       style="font-style:normal;font-variant:normal;font-weight:bold;font-stretch:normal;font-size:40px;line-height:1.25;font-family:'Coda ExtraBold';-inkscape-font-specification:'Coda ExtraBold, Bold';letter-spacing:0px;word-spacing:0px;fill:#000000;fill-opacity:1;stroke:none;stroke-width:1.1852684"
       d="m 85.167461,190.49342 h 0.20837 l 4.305843,-14.81586 7.884393,4.01723 -5.245274,20.66044 -3.463133,10.30688 -5.278511,2.63198 -5.263962,-13.17037 -10.301642,-24.44616 h 12.963873 z"
       sodipodi:nodetypes="ccccccccccc" />
    <path
       inkscape:connector-curvature="0"
       id="path922"
       style="font-style:normal;font-variant:normal;font-weight:bold;font-stretch:normal;font-size:40px;line-height:1.25;font-family:'Coda ExtraBold';-inkscape-font-specification:'Coda ExtraBold, Bold';letter-spacing:0px;word-spacing:0px;fill:#000000;fill-opacity:1;stroke:none;stroke-width:1.1852684"
       d="m 117.16046,186.55796 0.0699,0.0463 q 0,0.1389 0.0462,0.27781 0.0699,0.1389 0.18514,0.25464 0.13891,0.0926 0.25471,0.1852 0.13892,0.0695 0.34717,0.16205 0.23148,0.0695 0.3704,0.1158 0.16214,0.0463 0.41674,0.1158 0.27782,0.0463 0.41674,0.0695 0.13879,0.0231 0.41662,0.0695 0.27782,0.0463 0.37039,0.0695 5.20878,0.92599 7.47739,1.71308 5.11609,1.75938 6.78293,5.55594 0.92594,2.06033 0.92594,4.86145 0,4.00492 -0.87971,6.59769 -0.85648,2.59278 -2.84737,4.12066 -1.96778,1.52789 -4.81515,2.12978 -2.82426,0.60189 -7.15334,0.60189 -1.57415,0 -2.82425,-0.0694 -1.25011,-0.0463 -2.8706,-0.25465 -1.59727,-0.20835 -2.82426,-0.57874 -1.22687,-0.3704 -2.52332,-1.04175 -1.27322,-0.67134 -2.15292,-1.57418 -0.85648,-0.92599 -1.48159,-2.29183 -0.62499,-1.36584 -0.78702,-3.07892 -0.13891,-1.57419 -0.13891,-3.31042 h 13.26481 v 5.85689 h 4.00491 v -5.78744 q 0,-0.43984 -0.23149,-0.76394 -0.23148,-0.34725 -0.74079,-0.60189 -0.50931,-0.27781 -0.81025,-0.39355 -0.30094,-0.1158 -0.94916,-0.3241 -0.76391,-0.25464 -1.9909,-0.60189 -1.22687,-0.37039 -2.08346,-0.62505 -0.83336,-0.25464 -1.9909,-0.64819 -1.1343,-0.39354 -1.94455,-0.74079 -0.81025,-0.3704 -1.78252,-0.90284 -0.94917,-0.5556 -1.6205,-1.13434 -0.64822,-0.60189 -1.31956,-1.38899 -0.67134,-0.81024 -1.06485,-1.71308 -0.39362,-0.92599 -0.64822,-2.10663 -0.23148,-1.18064 -0.23148,-2.54648 0,-2.12978 0.39351,-3.86601 0.39351,-1.73623 1.08807,-2.98632 0.69445,-1.25009 1.75942,-2.17608 1.08795,-0.94914 2.29183,-1.52788 1.22687,-0.57875 2.80103,-0.92599 1.59738,-0.3704 3.17154,-0.5093 1.59738,-0.1389 3.54194,-0.1389 2.03712,0 3.61139,0.1158 1.59727,0.0926 3.17154,0.39354 1.59727,0.27781 2.7548,0.78709 1.15742,0.48615 2.17604,1.27324 1.01862,0.7871 1.64361,1.89829 0.62511,1.08803 0.9955,2.61592 0.3704,1.52789 0.3704,3.44931 h -12.40834 v -4.12065 h -4.0049 z" />
    <path
       inkscape:connector-curvature="0"
       id="path924"
       style="font-style:normal;font-variant:normal;font-weight:bold;font-stretch:normal;font-size:40px;line-height:1.25;font-family:'Coda ExtraBold';-inkscape-font-specification:'Coda ExtraBold, Bold';letter-spacing:0px;word-spacing:0px;fill:#000000;fill-opacity:1;stroke:none;stroke-width:1.1852684"
       d="m 166.60844,175.67756 v 6.2273 h -8.24141 v 30.6966 h -13.98237 v -30.6966 h -8.17195 v -6.2273 z" />
    <path
       inkscape:connector-curvature="0"
       id="path926"
       style="font-style:normal;font-variant:normal;font-weight:bold;font-stretch:normal;font-size:40px;line-height:1.25;font-family:'Coda ExtraBold';-inkscape-font-specification:'Coda ExtraBold, Bold';letter-spacing:0px;word-spacing:0px;fill:#000000;fill-opacity:1;stroke:none;stroke-width:1.1852684"
       d="m 182.48914,182.90029 h -0.43985 l -1.78253,16.3669 h 4.12071 z m -2.63912,21.22835 -1.27321,8.47282 h -13.56576 l 6.75971,-36.9239 h 20.99691 l 6.8755,36.9239 h -13.58898 l -1.2501,-8.47282 z" />
    <path
       inkscape:connector-curvature="0"
       id="path928"
       style="font-style:normal;font-variant:normal;font-weight:bold;font-stretch:normal;font-size:40px;line-height:1.25;font-family:'Coda ExtraBold';-inkscape-font-specification:'Coda ExtraBold, Bold';letter-spacing:0px;word-spacing:0px;fill:#000000;fill-opacity:1;stroke:none;stroke-width:1.1852684"
       d="m 219.99174,181.21036 h -4.0049 v 25.9972 h 4.0049 v -8.82007 h 13.9825 v 5.6717 q 0,1.80568 -0.53243,3.26411 -0.53242,1.43529 -1.38901,2.40758 -0.83336,0.9723 -2.12981,1.68993 -1.29633,0.71765 -2.61589,1.1112 -1.29633,0.39354 -3.00951,0.62504 -1.71307,0.2315 -3.10197,0.30095 -1.3659,0.0694 -3.10208,0.0694 -1.59739,0 -2.91695,-0.0694 -1.31956,-0.0463 -3.05574,-0.2778 -1.71307,-0.2315 -3.05574,-0.62504 -1.34267,-0.39355 -2.73169,-1.11119 -1.38901,-0.71764 -2.29183,-1.68994 -0.90282,-0.97229 -1.48159,-2.43073 -0.57877,-1.45843 -0.57877,-3.28725 v -19.81621 q 0,-1.78254 0.53243,-3.21783 0.55565,-1.45843 1.41213,-2.43072 0.8797,-0.97229 2.19926,-1.68993 1.31956,-0.7408 2.63912,-1.13434 1.34267,-0.39355 3.05574,-0.62505 1.71307,-0.25465 3.10208,-0.32409 1.41213,-0.0695 3.10209,-0.0695 1.80564,0 3.19465,0.0695 1.38902,0.0463 3.1252,0.27779 1.75941,0.2315 3.03263,0.62505 1.29633,0.3704 2.59277,1.08803 1.31956,0.71765 2.12981,1.68995 0.83336,0.97228 1.34267,2.43072 0.53243,1.45844 0.53243,3.28726 v 5.74114 h -13.9825 z" />
    <path
       inkscape:connector-curvature="0"
       id="path930"
       style="font-style:normal;font-variant:normal;font-weight:bold;font-stretch:normal;font-size:40px;line-height:1.25;font-family:'Coda ExtraBold';-inkscape-font-specification:'Coda ExtraBold, Bold';letter-spacing:0px;word-spacing:0px;fill:#000000;fill-opacity:1;stroke:none;stroke-width:1.1852684"
       d="m 273.6761,212.60146 -8.63491,-19.44581 7.52373,-17.47809 h -14.32966 l -6.82928,17.73273 0.0462,-4.25956 v -13.47317 h -14.0056 v 36.9239 h 14.0056 v -13.05648 l 1.36579,-3.03262 5.83377,16.0891 z" />
    <path
       inkscape:connector-curvature="0"
       id="path932"
       style="font-style:normal;font-variant:normal;font-weight:bold;font-stretch:normal;font-size:40px;line-height:1.25;font-family:'Coda ExtraBold';-inkscape-font-specification:'Coda ExtraBold, Bold';letter-spacing:0px;word-spacing:0px;fill:#000000;fill-opacity:1;stroke:none;stroke-width:1.1852684"
       d="m 13.356908,233.21368 0.06993,0.0463 q 0,0.1389 0.04622,0.2778 0.06993,0.1389 0.185258,0.25465 0.138913,0.0926 0.254595,0.1852 0.138914,0.0694 0.347284,0.16204 0.231483,0.0694 0.370396,0.11576 0.162027,0.0463 0.416741,0.11575 0.277708,0.0463 0.416622,0.0695 0.138913,0.0231 0.41674,0.0694 0.277827,0.0463 0.370396,0.0694 5.208662,0.92599 7.477385,1.71308 5.116092,1.75938 6.782816,5.55594 0.926051,2.06033 0.926051,4.86146 0,4.00491 -0.879707,6.59768 -0.856474,2.59278 -2.84737,4.12066 -1.967782,1.52789 -4.815153,2.12978 -2.824257,0.60189 -7.153332,0.60189 -1.574154,0 -2.824257,-0.0694 -1.250103,-0.0463 -2.870601,-0.25465 -1.5972681,-0.20835 -2.8242579,-0.57874 -1.2268714,-0.3704 -2.5233179,-1.04174 -1.2732154,-0.67134 -2.1529216,-1.57419 -0.8565934,-0.92599 -1.4815855,-2.29182 -0.62499199,-1.36584 -0.78713671,-3.07892 -0.13891346,-1.57419 -0.13891346,-3.31042 H 13.403726 v 5.85689 h 4.004903 v -5.78744 q 0,-0.43985 -0.231601,-0.76394 -0.231483,-0.34725 -0.740793,-0.6019 -0.509191,-0.2778 -0.810131,-0.39354 -0.301058,-0.11576 -0.949163,-0.3241 -0.764024,-0.25465 -1.990895,-0.6019 -1.22699,-0.37039 -2.083465,-0.62504 -0.8334803,-0.25465 -1.9908949,-0.64819 -1.1343019,-0.39355 -1.9445513,-0.7408 -0.8102495,-0.37039 -1.7825252,-0.90284 -0.9491629,-0.55559 -1.620499,-1.13434 -0.6482232,-0.60189 -1.3195593,-1.38898 -0.671336,-0.81024 -1.06496362,-1.71309 Q 0.48607857,237.26489 0.23148292,236.08426 0,234.90362 0,233.53778 q 0,-2.12978 0.39350911,-3.86601 0.39350911,-1.73624 1.08807639,-2.98632 0.6944488,-1.25009 1.7592939,-2.17608 1.0880764,-0.94914 2.291835,-1.52789 1.2269898,-0.57874 2.8011448,-0.92599 1.5973862,-0.37039 3.1715408,-0.50929 1.597268,-0.1389 3.541938,-0.1389 2.037121,0 3.611275,0.11575 1.597387,0.0926 3.171542,0.39355 1.597386,0.2778 2.7548,0.78709 1.157534,0.48615 2.176153,1.27324 1.01862,0.78709 1.643612,1.89828 0.624992,1.08804 0.995388,2.61592 0.370397,1.52789 0.370397,3.44932 h -12.40822 v -4.12066 h -4.004903 z" />
    <path
       inkscape:connector-curvature="0"
       id="path934"
       style="font-style:normal;font-variant:normal;font-weight:bold;font-stretch:normal;font-size:40px;line-height:1.25;font-family:'Coda ExtraBold';-inkscape-font-specification:'Coda ExtraBold, Bold';letter-spacing:0px;word-spacing:0px;fill:#000000;fill-opacity:1;stroke:none;stroke-width:1.1852684"
       d="m 50.118719,260.16001 q -1.851982,0 -3.240998,-0.0694 -1.388898,-0.0463 -3.14831,-0.2778 -1.7363,-0.20835 -3.009515,-0.60189 -1.273216,-0.39355 -2.569544,-1.08804 -1.296446,-0.71765 -2.129808,-1.68994 -0.81025,-0.97229 -1.31956,-2.43072 -0.50931,-1.48159 -0.50931,-3.31042 v -19.81621 q 0,-1.78253 0.532423,-3.21781 0.532541,-1.45844 1.389016,-2.43073 0.856593,-0.97229 2.152922,-1.68993 1.319559,-0.71765 2.639118,-1.11119 1.319559,-0.4167 3.009397,-0.6482 1.713187,-0.23149 3.102084,-0.30094 1.412129,-0.0694 3.102085,-0.0694 1.574154,0 2.893714,0.0694 1.319559,0.0463 3.032628,0.27779 1.713068,0.2315 3.05574,0.62505 1.342791,0.39354 2.708575,1.11119 1.389016,0.71764 2.291835,1.68993 0.925932,0.97229 1.504699,2.43073 0.578766,1.45843 0.578766,3.26411 v 19.81621 q 0,1.82883 -0.555535,3.28727 -0.532541,1.45843 -1.389016,2.43073 -0.856594,0.97229 -2.199266,1.68993 -1.342672,0.69449 -2.639118,1.08804 -1.296328,0.39354 -3.055741,0.60189 -1.759412,0.2315 -3.125197,0.30095 -1.342672,0.0694 -3.102084,0.0694 z m -1.921439,-6.34303 h 4.004903 v -26.0898 H 48.19728 Z" />
    <path
       inkscape:connector-curvature="0"
       id="path938"
       style="font-style:normal;font-variant:normal;font-weight:bold;font-stretch:normal;font-size:40px;line-height:1.25;font-family:'Coda ExtraBold';-inkscape-font-specification:'Coda ExtraBold, Bold';letter-spacing:0px;word-spacing:0px;fill:#000000;fill-opacity:1;stroke:none;stroke-width:1.1852684"
       d="m 108.84972,253.84013 h 4.0049 v -31.4837 h 14.00561 v 28.33533 q 0,1.80568 -0.55554,3.26411 -0.53254,1.43529 -1.38901,2.40758 -0.8566,0.97229 -2.19927,1.68993 -1.31956,0.71765 -2.639,1.11119 -1.31956,0.39355 -3.05586,0.62505 -1.71307,0.2315 -3.10208,0.30094 -1.3889,0.0694 -3.10197,0.0694 -1.59739,0 -2.91694,-0.0694 -1.31956,-0.0463 -3.03263,-0.27779 -1.71307,-0.2315 -3.05574,-0.62505 -1.31956,-0.39354 -2.685349,-1.11119 -1.342672,-0.71764 -2.24561,-1.68993 -0.879587,-0.97229 -1.458354,-2.43073 -0.555654,-1.48158 -0.555654,-3.28726 v -28.33533 h 13.982497 z" />
    <path
       inkscape:connector-curvature="0"
       id="path940"
       style="font-style:normal;font-variant:normal;font-weight:bold;font-stretch:normal;font-size:40px;line-height:1.25;font-family:'Coda ExtraBold';-inkscape-font-specification:'Coda ExtraBold, Bold';letter-spacing:0px;word-spacing:0px;fill:#000000;fill-opacity:1;stroke:none;stroke-width:1.1852684"
       d="m 159.29308,222.33328 v 6.22729 h -8.24129 v 30.6966 H 137.0693 v -30.6966 h -8.17183 v -6.22729 z" />
    <path
       inkscape:connector-curvature="0"
       id="path942"
       style="font-style:normal;font-variant:normal;font-weight:bold;font-stretch:normal;font-size:40px;line-height:1.25;font-family:'Coda ExtraBold';-inkscape-font-specification:'Coda ExtraBold, Bold';letter-spacing:0px;word-spacing:0px;fill:#000000;fill-opacity:1;stroke:none;stroke-width:1.1852684"
       d="m 175.49795,222.33328 v 36.92389 h -13.98249 v -36.92389 z" />
    <path
       inkscape:connector-curvature="0"
       id="path944"
       style="font-style:normal;font-variant:normal;font-weight:bold;font-stretch:normal;font-size:40px;line-height:1.25;font-family:'Coda ExtraBold';-inkscape-font-specification:'Coda ExtraBold, Bold';letter-spacing:0px;word-spacing:0px;fill:#000000;fill-opacity:1;stroke:none;stroke-width:1.1852684"
       d="m 195.40667,260.16001 q -1.85198,0 -3.24088,-0.0694 -1.38902,-0.0463 -3.14843,-0.2778 -1.73618,-0.20835 -3.0094,-0.60189 -1.27333,-0.39355 -2.56966,-1.08804 -1.29644,-0.71765 -2.12981,-1.68994 -0.81025,-0.97229 -1.31956,-2.43072 -0.50931,-1.48159 -0.50931,-3.31042 v -19.81621 q 0,-1.78253 0.53255,-3.21781 0.53242,-1.45844 1.38889,-2.43073 0.8566,-0.97229 2.15292,-1.68993 1.31956,-0.71765 2.63912,-1.11119 1.31956,-0.4167 3.00952,-0.6482 1.71307,-0.23149 3.10208,-0.30094 1.41213,-0.0694 3.10197,-0.0694 1.57427,0 2.89371,0.0694 1.31956,0.0463 3.03263,0.27779 1.71319,0.2315 3.05586,0.62505 1.34267,0.39354 2.70846,1.11119 1.38901,0.71764 2.29183,1.68993 0.92605,0.97229 1.5047,2.43073 0.57877,1.45843 0.57877,3.26411 v 19.81621 q 0,1.82883 -0.55554,3.28727 -0.53242,1.45843 -1.38901,2.43073 -0.8566,0.97229 -2.19927,1.68993 -1.34267,0.69449 -2.639,1.08804 -1.29645,0.39354 -3.05586,0.60189 -1.75929,0.2315 -3.1252,0.30095 -1.34267,0.0694 -3.10208,0.0694 z m -1.92144,-6.34303 h 4.00502 v -26.0898 h -4.00502 z" />
    <path
       inkscape:connector-curvature="0"
       id="path946"
       style="font-style:normal;font-variant:normal;font-weight:bold;font-stretch:normal;font-size:40px;line-height:1.25;font-family:'Coda ExtraBold';-inkscape-font-specification:'Coda ExtraBold, Bold';letter-spacing:0px;word-spacing:0px;fill:#000000;fill-opacity:1;stroke:none;stroke-width:1.1852684"
       d="m 235.24745,259.25717 -9.37559,-16.45949 v 16.45949 h -10.3711 v -36.92389 h 11.96837 l 9.97759,17.61698 v -17.61698 h 10.27853 v 36.92389 z" />
    <path
       inkscape:connector-curvature="0"
       id="path948"
       style="font-style:normal;font-variant:normal;font-weight:bold;font-stretch:normal;font-size:40px;line-height:1.25;font-family:'Coda ExtraBold';-inkscape-font-specification:'Coda ExtraBold, Bold';letter-spacing:0px;word-spacing:0px;fill:#000000;fill-opacity:1;stroke:none;stroke-width:1.1852684"
       d="m 264.48565,233.21368 0.0699,0.0463 q 0,0.1389 0.0462,0.2778 0.0699,0.1389 0.18526,0.25465 0.13891,0.0926 0.25459,0.1852 0.13892,0.0694 0.34729,0.16204 0.23148,0.0694 0.37039,0.11576 0.16203,0.0463 0.41674,0.11575 0.27771,0.0463 0.41662,0.0695 0.13892,0.0231 0.41674,0.0694 0.27783,0.0463 0.3704,0.0694 5.20866,0.92599 7.47738,1.71308 5.1161,1.75938 6.78282,5.55594 0.92605,2.06033 0.92605,4.86146 0,4.00491 -0.8797,6.59768 -0.85648,2.59278 -2.84737,4.12066 -1.96779,1.52789 -4.81516,2.12978 -2.82425,0.60189 -7.15333,0.60189 -1.57415,0 -2.82426,-0.0694 -1.2501,-0.0463 -2.8706,-0.25465 -1.59727,-0.20835 -2.82426,-0.57874 -1.22687,-0.3704 -2.52331,-1.04174 -1.27322,-0.67134 -2.15293,-1.57419 -0.85659,-0.92599 -1.48158,-2.29182 -0.62499,-1.36584 -0.78714,-3.07892 -0.13891,-1.57419 -0.13891,-3.31042 h 13.26493 v 5.85689 h 4.0049 v -5.78744 q 0,-0.43985 -0.2316,-0.76394 -0.23148,-0.34725 -0.74079,-0.6019 -0.50919,-0.2778 -0.81013,-0.39354 -0.30106,-0.11576 -0.94916,-0.3241 -0.76403,-0.25465 -1.9909,-0.6019 -1.22699,-0.37039 -2.08346,-0.62504 -0.83349,-0.25465 -1.9909,-0.64819 -1.1343,-0.39355 -1.94455,-0.7408 -0.81025,-0.37039 -1.78253,-0.90284 -0.94916,-0.55559 -1.6205,-1.13434 -0.64822,-0.60189 -1.31955,-1.38898 -0.67134,-0.81024 -1.06497,-1.71309 -0.39351,-0.92599 -0.6481,-2.10662 -0.23149,-1.18064 -0.23149,-2.54648 0,-2.12978 0.39351,-3.86601 0.39351,-1.73624 1.08808,-2.98632 0.69445,-1.25009 1.75929,-2.17608 1.08808,-0.94914 2.29184,-1.52789 1.22699,-0.57874 2.80114,-0.92599 1.59739,-0.37039 3.17154,-0.50929 1.59727,-0.1389 3.54194,-0.1389 2.03712,0 3.61128,0.11575 1.59738,0.0926 3.17154,0.39355 1.59739,0.2778 2.7548,0.78709 1.15753,0.48615 2.17615,1.27324 1.01862,0.78709 1.64361,1.89828 0.625,1.08804 0.99539,2.61592 0.3704,1.52789 0.3704,3.44932 h -12.40822 v -4.12066 h -4.0049 z" />
    <path
       style="opacity:1;fill:#000000;fill-opacity:1;fill-rule:nonzero;stroke:none;stroke-width:1;stroke-linecap:butt;stroke-linejoin:round;stroke-miterlimit:4;stroke-dasharray:none;stroke-opacity:1"
       d="m 75.355018,249.90869 18.063736,0.0976 v 8.6591 H 73.69527 Z"
       id="rect968"
       inkscape:connector-curvature="0"
       sodipodi:nodetypes="ccccc" />
  </g>
</svg>
