<?xml version="1.0" encoding="UTF-8" standalone="no"?>
<svg
   xmlns:dc="http://purl.org/dc/elements/1.1/"
   xmlns:cc="http://creativecommons.org/ns#"
   xmlns:rdf="http://www.w3.org/1999/02/22-rdf-syntax-ns#"
   xmlns:svg="http://www.w3.org/2000/svg"
   xmlns="http://www.w3.org/2000/svg"
   xmlns:sodipodi="http://sodipodi.sourceforge.net/DTD/sodipodi-0.dtd"
   xmlns:inkscape="http://www.inkscape.org/namespaces/inkscape"
   version="1.0"
   width="300pt"
   height="130pt"
   viewBox="0 0 300 130"
   preserveAspectRatio="xMidYMid meet"
   id="svg1045"
   sodipodi:docname="logo.svg"
   inkscape:version="0.92.4 (ca053d0, 2019-01-16)">
  <defs
     id="defs1049" />
  <sodipodi:namedview
     pagecolor="#ffffff"
     bordercolor="#666666"
     borderopacity="1"
     objecttolerance="10"
     gridtolerance="10"
     guidetolerance="10"
     inkscape:pageopacity="0"
     inkscape:pageshadow="2"
     inkscape:window-width="1859"
     inkscape:window-height="1056"
     id="namedview1047"
     showgrid="false"
     inkscape:zoom="1"
     inkscape:cx="256.18671"
     inkscape:cy="165.98002"
     inkscape:window-x="61"
     inkscape:window-y="24"
     inkscape:window-maximized="1"
     inkscape:current-layer="svg1045" />
  <metadata
     id="metadata1023">
Created by potrace 1.15, written by Peter Selinger 2001-2017
<rdf:RDF>
  <cc:Work
     rdf:about="">
    <dc:format>image/svg+xml</dc:format>
    <dc:type
       rdf:resource="http://purl.org/dc/dcmitype/StillImage" />
    <dc:title></dc:title>
  </cc:Work>
</rdf:RDF>
</metadata>
  <g
     id="g5065"
     transform="translate(-142.7588,65.114881)"
     style="fill:#122d52;fill-opacity:1">
    <path
       d="m 189.49087,-60.21517 c 0,0.5 1.8,1.1 3.9,1.5 4.7,0.7 9.5,4.5 12.1,9.6 2.8,5.5 20,45 20,46 0,0.4 -3.3,1.4 -7.2,2 -22.4,3.7 -42,8.7 -56.5,14.6 -8.8,3.6 -19.7,9.3 -19,10 0.2,0.2 5,-1 10.8,-2.6 82,-23.5 182.4,-24.6 267.2,-3 10.5,2.7 20.3,5.2 21.7,5.5 1.4,0.4 -0.2,-1 -3.5,-2.9 -13.5,-8 -39.9,-16.3 -66.3,-20.7 -7,-1.2 -12.9,-2.3 -13,-2.5 -0.2,-0.1 1,-2.2 2.6,-4.6 4.8,-7 6.5,-13.4 6,-23.5 -0.4,-10.6 -3,-16.5 -9.7,-22.4 -7.9,-7 -12.9,-7.9 -44.7,-7.9 -17.6,0 -27.4,0.4 -27.4,1 0,0.5 1.3,1 2.8,1 5.2,0 8.5,4.4 7.1,9.4 -0.5,1.7 -4.6,12.1 -9.2,23.1 l -8.4,20 -11.9,0.6 c -6.5,0.4 -15.5,1 -20,1.4 l -8.1,0.7 -9.2,-22.9 c -5,-12.5 -9.1,-24 -9.1,-25.6 0,-3.4 3.2,-6.7 6.5,-6.7 1.4,0 2.5,-0.5 2.5,-1 0,-0.6 -7.3,-1 -20,-1 -11,0 -20,0.4 -20,0.9 z m 151.9,6.7 c 2,0.8 4.8,2.7 6.3,4.1 6.1,5.9 9.5,21.2 6.8,30.8 -1.4,5 -5.9,11.8 -8.7,13.4 -1.2,0.6 -7.5,0.5 -17.8,-0.2 l -16,-1.2 -0.3,-23.5 c -0.1,-12.9 0,-24.1 0.3,-24.9 0.5,-1.1 2.7,-1.3 13.2,-0.7 7.4,0.4 14.1,1.3 16.2,2.2 z m -40.9,33.4 v 13 h -6.1 c -3.3,0 -5.9,-0.4 -5.7,-0.9 1.3,-3.4 11.2,-25.1 11.5,-25.1 0.2,0 0.3,5.8 0.3,13 z"
       id="path1025"
       inkscape:connector-curvature="0"
       style="fill:#122d52;fill-opacity:1;stroke:none;stroke-width:0.1" />
    <path
       d="m 265.09087,26.48483 c -3.8,9.1 -7.2,16.2 -7.6,15.7 -0.4,-0.4 -3.4,-7.5 -6.6,-15.6 l -5.8,-14.9 -5.6,0.7 c -3,0.4 -5.7,0.8 -5.8,1 -0.2,0.2 4.1,10.6 9.6,23.2 12.6,28.7 12.4,28.3 13.2,28.3 0.4,0 1.5,-2.2 2.3,-4.8 0.9,-2.6 5.9,-14.4 11.2,-26.2 5.3,-11.8 9.9,-22.1 10.2,-22.8 0.4,-0.8 -0.7,-1.2 -3.9,-1.2 h -4.4 z"
       id="path1027"
       inkscape:connector-curvature="0"
       style="fill:#122d52;fill-opacity:1;stroke:none;stroke-width:0.1" />
    <path
       d="m 300.29087,31.78483 -0.3,22 -3,3.1 c -1.8,1.9 -4.3,3.3 -6.7,3.6 -8.8,1.5 -2.5,2.4 15.7,2.4 18.2,0 24.5,-0.9 15.7,-2.4 -4.2,-0.6 -7.5,-3.5 -9.1,-7.9 -0.7,-1.7 -1.1,-11.1 -1.1,-22.8 v -19.9 h -5.4 -5.5 z"
       id="path1029"
       inkscape:connector-curvature="0"
       style="fill:#122d52;fill-opacity:1;stroke:none;stroke-width:0.1" />
    <path
       d="m 333.09087,13.08483 c 4.2,7 24.8,35.2 28.1,38.5 7.3,7.4 18,11.3 31,11.3 6.1,0 7,-1.4 1.6,-2.5 -10,-1.8 -19.2,-10.3 -34.7,-31.8 -5.4,-7.5 -10.5,-14.2 -11.2,-14.8 -0.8,-0.6 -4.6,-1.4 -8.5,-1.7 -6.1,-0.4 -7,-0.3 -6.3,1 z"
       id="path1031"
       inkscape:connector-curvature="0"
       style="fill:#122d52;fill-opacity:1;stroke:none;stroke-width:0.1" />
  </g>
  <text
     xml:space="preserve"
     style="font-style:normal;font-variant:normal;font-weight:bold;font-stretch:normal;font-size:30px;line-height:1.25;font-family:'Crimson Text';-inkscape-font-specification:'Crimson Text Bold';letter-spacing:0px;word-spacing:0px;fill:#000000;fill-opacity:1;stroke:none;stroke-width:0.75"
     x="94"
     y="-79.5"
     id="text4563"><tspan
       sodipodi:role="line"
       id="tspan4561"
       x="94"
       y="-54.744141"
       style="stroke-width:0.75" /></text>
</svg>
