<?xml version="1.0" encoding="UTF-8" standalone="no"?>
<svg
   xmlns:dc="http://purl.org/dc/elements/1.1/"
   xmlns:cc="http://creativecommons.org/ns#"
   xmlns:rdf="http://www.w3.org/1999/02/22-rdf-syntax-ns#"
   xmlns:svg="http://www.w3.org/2000/svg"
   xmlns="http://www.w3.org/2000/svg"
   xmlns:sodipodi="http://sodipodi.sourceforge.net/DTD/sodipodi-0.dtd"
   xmlns:inkscape="http://www.inkscape.org/namespaces/inkscape"
   width="145mm"
   height="155mm"
   viewBox="0 0 145 155"
   version="1.1"
   id="svg8"
   inkscape:version="1.0 (6e3e5246a0, 2020-05-07)"
   sodipodi:docname="argzilla.svg">
  <defs
     id="defs2" />
  <sodipodi:namedview
     id="base"
     pagecolor="#ffffff"
     bordercolor="#666666"
     borderopacity="1.0"
     inkscape:pageopacity="0.0"
     inkscape:pageshadow="2"
     inkscape:zoom="0.54"
     inkscape:cx="150.26145"
     inkscape:cy="540.03962"
     inkscape:document-units="mm"
     inkscape:current-layer="layer1"
     inkscape:document-rotation="0"
     showgrid="false"
     inkscape:window-width="1859"
     inkscape:window-height="1056"
     inkscape:window-x="61"
     inkscape:window-y="24"
     inkscape:window-maximized="1"
     inkscape:snap-intersection-paths="false"
     inkscape:object-paths="false"
     inkscape:snap-smooth-nodes="false" />
  <metadata
     id="metadata5">
    <rdf:RDF>
      <cc:Work
         rdf:about="">
        <dc:format>image/svg+xml</dc:format>
        <dc:type
           rdf:resource="http://purl.org/dc/dcmitype/StillImage" />
        <dc:title></dc:title>
      </cc:Work>
    </rdf:RDF>
  </metadata>
  <g
     inkscape:label="Layer 1"
     inkscape:groupmode="layer"
     id="layer1">
    <path
       id="rect1205-7-1"
       style="fill:#459ba0;fill-opacity:1;stroke:#000000;stroke-width:1;stroke-linecap:round;stroke-linejoin:round;stroke-miterlimit:4;stroke-dasharray:none;stroke-opacity:1"
       d="m 44.651924,71.241961 -17.98339,24.99551 10.026297,-3.61943 -2.102761,9.599539 8.87256,-4.233259 1.3367,11.053059 17.005354,-24.873019"
       sodipodi:nodetypes="ccccccc" />
    <path
       sodipodi:nodetypes="ccccccccc"
       d="m 66.78621,102.85259 -0.0752,26.24779 -25.444543,8.39773 3.451615,-7.11222 -8.84111,1.76519 5.02012,-6.2361 -8.580442,0.48713 11.278584,-6.47881 0.161636,-16.91952"
       style="fill:#459ba0;fill-opacity:1;stroke:#000000;stroke-width:1;stroke-linecap:round;stroke-linejoin:round;stroke-miterlimit:4;stroke-dasharray:none;stroke-opacity:1"
       id="rect1205-9" />
    <circle
       cy="91.085587"
       cx="113.13235"
       id="path833-3-9-0"
       style="fill:#557f88;fill-opacity:1;stroke:#000000;stroke-width:1;stroke-linecap:round;stroke-linejoin:round;stroke-miterlimit:4;stroke-dasharray:none;stroke-opacity:1"
       r="7.9839549" />
    <circle
       cy="65.057465"
       cx="110.55105"
       id="path833-3-9-2"
       style="fill:#557f88;fill-opacity:1;stroke:#000000;stroke-width:1;stroke-linecap:round;stroke-linejoin:round;stroke-miterlimit:4;stroke-dasharray:none;stroke-opacity:1"
       r="7.9839549" />
    <circle
       cy="39.889786"
       cx="109.47551"
       id="path833-3-9-9"
       style="fill:#557f88;fill-opacity:1;stroke:#000000;stroke-width:1;stroke-linecap:round;stroke-linejoin:round;stroke-miterlimit:4;stroke-dasharray:none;stroke-opacity:1"
       r="7.9839549" />
    <circle
       cy="17.303402"
       cx="100.01073"
       id="path833-3-9-7"
       style="fill:#557f88;fill-opacity:1;stroke:#000000;stroke-width:1;stroke-linecap:round;stroke-linejoin:round;stroke-miterlimit:4;stroke-dasharray:none;stroke-opacity:1"
       r="7.9839549" />
    <circle
       r="7.9839549"
       style="fill:#557f88;fill-opacity:1;stroke:#000000;stroke-width:1;stroke-linecap:round;stroke-linejoin:round;stroke-miterlimit:4;stroke-dasharray:none;stroke-opacity:1"
       id="path833-3-9"
       cx="76.348824"
       cy="8.4839554" />
    <path
       id="path833-3-6-0"
       style="fill:#459ba0;fill-opacity:1;stroke:#000000;stroke-width:1;stroke-linecap:round;stroke-linejoin:round;stroke-miterlimit:4;stroke-dasharray:none;stroke-opacity:1"
       d="m 75.500971,56.078241 c 10e-7,7.13444 -5.783603,12.91804 -12.918039,12.91804 l -20.320408,0.0101 -0.118713,27.28875 c -2e-6,18.677409 15.141033,33.818449 33.818447,33.818449 24.448022,0 46.365392,-9.90952 62.170762,-25.93104 3.95134,-4.00539 6.08402,-8.146239 6.08402,-8.146239 -3.64584,2.68509 -8.68252,4.345849 -14.24589,4.345849 -11.12673,0 -20.14672,-6.643039 -20.14672,-14.837649 m -3e-5,0 -0.0437,-16.67628 V 41.441316 c 0,-18.677412 -15.141028,-33.8184456 -33.818444,-33.8184466 -18.677413,0 -33.818446,15.1410336 -33.818446,33.8184466 l 0.02048,1.708763 20.418643,0.01012 c 7.134436,0 12.91804,5.783605 12.918038,12.918042"
       sodipodi:nodetypes="ccccsscscccsscccc" />
    <path
       id="rect1184"
       style="fill:#333333;fill-opacity:1;stroke:none;stroke-width:1;stroke-linecap:round;stroke-linejoin:round;stroke-miterlimit:4;stroke-dasharray:none;stroke-opacity:1"
       d="m 57.279273,28.234064 c -0.0044,1.679827 -1.369668,3.045133 -3.053858,3.045133 -1.68419,0 -3.049496,-1.365306 -3.055316,-3.045133 v -3.98053 c 0.0058,-1.679828 1.371126,-3.045134 3.055316,-3.045134 1.68419,0 3.049495,1.365306 3.053858,3.045134 z"
       sodipodi:nodetypes="csccscc" />
    <path
       sodipodi:nodetypes="csccscc"
       d="m 74.6631,28.175138 c -0.0044,1.679826 -1.369668,3.045132 -3.053858,3.045132 -1.68419,0 -3.049496,-1.365306 -3.055316,-3.045132 v -3.98053 c 0.0058,-1.679829 1.371126,-3.045135 3.055316,-3.045135 1.68419,0 3.049495,1.365306 3.053858,3.045135 z"
       style="fill:#333333;fill-opacity:1;stroke:none;stroke-width:1;stroke-linecap:round;stroke-linejoin:round;stroke-miterlimit:4;stroke-dasharray:none;stroke-opacity:1"
       id="rect1184-2" />
    <path
       id="rect1205"
       style="fill:#459ba0;fill-opacity:1;stroke:#000000;stroke-width:1;stroke-linecap:round;stroke-linejoin:round;stroke-miterlimit:4;stroke-dasharray:none;stroke-opacity:1"
       d="m 109.92726,117.21913 -0.0752,26.24779 -22.955878,10.36246 1.748852,-7.89811 -7.138346,2.55108 3.317356,-7.02199 -6.877678,1.27302 8.789929,-8.44354 0.161636,-16.91952"
       sodipodi:nodetypes="ccccccccc" />
    <path
       sodipodi:nodetypes="ccccccc"
       d="m 108.84,72.523721 11.08585,28.727719 -8.78678,-6.034849 -0.39044,9.819389 -7.5154,-6.337319 -4.085528,10.356899 -10.170481,-28.362129"
       style="fill:#459ba0;fill-opacity:1;stroke:#000000;stroke-width:1;stroke-linecap:round;stroke-linejoin:round;stroke-miterlimit:4;stroke-dasharray:none;stroke-opacity:1"
       id="rect1205-7" />
    <path
       id="path833-3-3"
       style="fill:#ff8e0e;fill-opacity:1;stroke:none;stroke-width:1.80091;stroke-linecap:round;stroke-linejoin:round;stroke-miterlimit:4;stroke-dasharray:none;stroke-opacity:1"
       d="m 42.722857,56.037711 c -5e-6,7.94095 -6.437422,14.37838 -14.378378,14.37838 -7.940955,0 -20.1597492,-7.29155 -28.344479,-14.99452 8.2153528,-7.735589 20.403519,-13.762246 28.344479,-13.762246 7.940962,0 14.378382,6.437422 14.378378,14.378386"
       sodipodi:nodetypes="cscsc" />
    <path
       sodipodi:nodetypes="cscsc"
       d="m 39.300584,56.466871 c -4e-6,4.47264 -3.625794,8.09842 -8.098433,8.09842 -4.472638,0 -11.354712,-4.10687 -15.964655,-8.44546 4.62719,-4.35697 11.492015,-7.751413 15.964655,-7.751413 4.472643,0 8.098434,3.625806 8.098433,8.098453"
       style="fill:#fff30e;fill-opacity:1;stroke:none;stroke-width:1.01434;stroke-linecap:round;stroke-linejoin:round;stroke-miterlimit:4;stroke-dasharray:none;stroke-opacity:1"
       id="path833-3-3-6" />
  </g>
</svg>
