<?xml version="1.0" encoding="UTF-8" standalone="no"?>
<!-- Created with Inkscape (http://www.inkscape.org/) -->

<svg
   xmlns:dc="http://purl.org/dc/elements/1.1/"
   xmlns:cc="http://creativecommons.org/ns#"
   xmlns:rdf="http://www.w3.org/1999/02/22-rdf-syntax-ns#"
   xmlns:svg="http://www.w3.org/2000/svg"
   xmlns="http://www.w3.org/2000/svg"
   xmlns:sodipodi="http://sodipodi.sourceforge.net/DTD/sodipodi-0.dtd"
   xmlns:inkscape="http://www.inkscape.org/namespaces/inkscape"
   width="502mm"
   height="70mm"
   viewBox="0 0 502 70"
   version="1.1"
   id="svg936"
   sodipodi:docname="logo.svg"
   inkscape:version="0.92.3 (d244b95, 2018-08-02)">
  <defs
     id="defs930" />
  <sodipodi:namedview
     id="base"
     pagecolor="#ffffff"
     bordercolor="#666666"
     borderopacity="1.0"
     inkscape:pageopacity="0.0"
     inkscape:pageshadow="2"
     inkscape:zoom="0.35"
     inkscape:cx="695.9481"
     inkscape:cy="560"
     inkscape:document-units="mm"
     inkscape:current-layer="layer1"
     showgrid="false"
     inkscape:window-width="1859"
     inkscape:window-height="1056"
     inkscape:window-x="61"
     inkscape:window-y="24"
     inkscape:window-maximized="1" />
  <metadata
     id="metadata933">
    <rdf:RDF>
      <cc:Work
         rdf:about="">
        <dc:format>image/svg+xml</dc:format>
        <dc:type
           rdf:resource="http://purl.org/dc/dcmitype/StillImage" />
        <dc:title></dc:title>
      </cc:Work>
    </rdf:RDF>
  </metadata>
  <g
     inkscape:label="Layer 1"
     inkscape:groupmode="layer"
     id="layer1"
     transform="translate(0,-227)">
    <flowRoot
       xml:space="preserve"
       id="flowRoot5196"
       style="font-style:normal;font-weight:normal;font-size:40px;line-height:1.25;font-family:sans-serif;letter-spacing:0px;word-spacing:0px;fill:#000000;fill-opacity:1;stroke:none"
       transform="scale(0.26458333)"><flowRegion
         id="flowRegion5198"><rect
           id="rect5200"
           width="2180"
           height="720"
           x="-1020"
           y="-6.0517435" /></flowRegion><flowPara
         id="flowPara5202"></flowPara></flowRoot>    <text
       xml:space="preserve"
       style="font-style:normal;font-weight:normal;font-size:10.58333302px;line-height:1.25;font-family:sans-serif;letter-spacing:0px;word-spacing:0px;fill:#000000;fill-opacity:1;stroke:none;stroke-width:0.26458332"
       x="-339.42258"
       y="89.869041"
       id="text5206"><tspan
         sodipodi:role="line"
         id="tspan5204"
         x="-339.42258"
         y="99.232811"
         style="stroke-width:0.26458332" /></text>
    <g
       id="g5342"
       style="stroke:none">
      <g
         id="text5210"
         style="font-style:normal;font-variant:normal;font-weight:bold;font-stretch:normal;font-size:70.55555725px;line-height:1.25;font-family:Saab;-inkscape-font-specification:'Saab Bold';letter-spacing:0px;word-spacing:0px;fill:#50e1d7;fill-opacity:1;stroke:none;stroke-width:1.5;stroke-miterlimit:4;stroke-dasharray:none;stroke-opacity:1"
         aria-label="Cyan">
        <path
           id="path5321"
           style="font-style:normal;font-variant:normal;font-weight:bold;font-stretch:normal;font-size:70.55555725px;font-family:Saab;-inkscape-font-specification:'Saab Bold';fill:#50e1d7;fill-opacity:1;stroke:none;stroke-width:1.5;stroke-miterlimit:4;stroke-dasharray:none;stroke-opacity:1"
           d="m 44.502714,278.1977 q -3.651802,1.8948 -7.613662,2.85943 -3.961859,0.96462 -8.268229,0.96462 -12.850206,0 -20.3605147,-7.1658 -7.51030837,-7.20025 -7.51030837,-19.49924 0,-12.33344 7.51030837,-19.49924 7.5103087,-7.20025 20.3605147,-7.20025 4.30637,0 8.268229,0.96463 3.96186,0.96463 7.613662,2.85943 v 10.64534 q -3.686253,-2.51492 -7.269152,-3.68625 -3.582899,-1.17133 -7.544759,-1.17133 -7.096897,0 -11.16211,4.54752 -4.065213,4.54753 -4.065213,12.54015 0,7.95817 4.065213,12.5057 4.065213,4.54753 11.16211,4.54753 3.96186,0 7.544759,-1.17134 3.582899,-1.17133 7.269152,-3.68625 z" />
        <path
           id="path5323"
           style="font-style:normal;font-variant:normal;font-weight:bold;font-stretch:normal;font-size:70.55555725px;font-family:Saab;-inkscape-font-specification:'Saab Bold';fill:#50e1d7;fill-opacity:1;stroke:none;stroke-width:1.5;stroke-miterlimit:4;stroke-dasharray:none;stroke-opacity:1"
           d="m 49.911512,242.4376 h 12.333442 l 10.369738,26.18273 8.819444,-26.18273 h 12.333443 l -16.226401,42.23688 q -2.446017,6.44232 -5.718858,8.9917 -3.23839,2.58382 -8.578288,2.58382 h -7.131348 v -8.09598 h 3.858507 q 3.135037,0 4.547526,-0.99908 1.44694,-0.99907 2.239312,-3.58289 l 0.34451,-1.06798 z" />
        <path
           id="path5325"
           style="font-style:normal;font-variant:normal;font-weight:bold;font-stretch:normal;font-size:70.55555725px;font-family:Saab;-inkscape-font-specification:'Saab Bold';fill:#50e1d7;fill-opacity:1;stroke:none;stroke-width:1.5;stroke-miterlimit:4;stroke-dasharray:none;stroke-opacity:1"
           d="m 118.29666,263.65939 q -3.85851,0 -5.82221,1.30914 -1.92925,1.30914 -1.92925,3.85851 0,2.34266 1.55029,3.68625 1.58474,1.30913 4.37527,1.30913 3.47955,0 5.85666,-2.48046 2.37712,-2.51492 2.37712,-6.27008 v -1.41249 z m 18.84467,-4.65088 v 22.01416 h -12.43679 v -5.71885 q -2.48047,3.51399 -5.58106,5.13319 -3.10058,1.58474 -7.54476,1.58474 -5.99446,0 -9.74962,-3.47954 -3.7207,-3.514 -3.7207,-9.09506 0,-6.78683 4.65088,-9.95632 4.68533,-3.16949 14.67611,-3.16949 h 7.26915 v -0.96463 q 0,-2.92833 -2.30822,-4.27192 -2.30821,-1.37803 -7.20025,-1.37803 -3.96186,0 -7.3725,0.79237 -3.41065,0.79237 -6.33898,2.37711 v -9.40511 q 3.96186,-0.96462 7.95817,-1.44694 3.99632,-0.51676 7.99263,-0.51676 10.43864,0 15.05506,4.13411 4.65088,4.09967 4.65088,13.36697 z" />
        <path
           id="path5327"
           style="font-style:normal;font-variant:normal;font-weight:bold;font-stretch:normal;font-size:70.55555725px;font-family:Saab;-inkscape-font-specification:'Saab Bold';fill:#50e1d7;fill-opacity:1;stroke:none;stroke-width:1.5;stroke-miterlimit:4;stroke-dasharray:none;stroke-opacity:1"
           d="m 187.47419,257.52712 v 23.49555 h -12.40235 v -3.82405 -14.15934 q 0,-4.99539 -0.24115,-6.8902 -0.20671,-1.8948 -0.75793,-2.79052 -0.72347,-1.20579 -1.9637,-1.86035 -1.24023,-0.68902 -2.82498,-0.68902 -3.85851,0 -6.06337,2.99723 -2.20486,2.96278 -2.20486,8.23378 v 18.98247 H 148.68241 V 242.4376 h 12.33344 v 5.64996 q 2.79053,-3.37619 5.92557,-4.96094 3.13503,-1.61919 6.92464,-1.61919 6.68348,0 10.12858,4.09966 3.47955,4.09967 3.47955,11.92003 z" />
      </g>
      <g
         id="text5306"
         style="font-style:normal;font-variant:normal;font-weight:bold;font-stretch:normal;font-size:70.55555725px;line-height:1.25;font-family:Saab;-inkscape-font-specification:'Saab Bold';letter-spacing:0px;word-spacing:0px;fill:#509fe1;fill-opacity:1;stroke:none;stroke-width:1.5;stroke-miterlimit:4;stroke-dasharray:none;stroke-opacity:1"
         aria-label=" Pepper">
        <path
           id="path5308"
           style="font-style:normal;font-variant:normal;font-weight:bold;font-stretch:normal;font-size:70.55555725px;font-family:Saab;-inkscape-font-specification:'Saab Bold';fill:#509fe1;fill-opacity:1;stroke:none;stroke-width:1.5;stroke-miterlimit:4;stroke-dasharray:none;stroke-opacity:1"
           d="m 213.50308,230.13861 h 22.01416 q 9.81853,0 15.05507,4.37527 5.271,4.34082 5.271,12.40234 0,8.09598 -5.271,12.47125 -5.23654,4.34082 -15.05507,4.34082 h -8.75054 v 17.84559 h -13.26362 z m 13.26362,9.61181 v 14.36605 h 7.33806 q 3.8585,0 5.96001,-1.86035 2.10151,-1.8948 2.10151,-5.3399 0,-3.44509 -2.10151,-5.30545 -2.10151,-1.86035 -5.96001,-1.86035 z" />
        <path
           id="path5310"
           style="font-style:normal;font-variant:normal;font-weight:bold;font-stretch:normal;font-size:70.55555725px;font-family:Saab;-inkscape-font-specification:'Saab Bold';fill:#509fe1;fill-opacity:1;stroke:none;stroke-width:1.5;stroke-miterlimit:4;stroke-dasharray:none;stroke-opacity:1"
           d="m 303.14447,262.178 v 3.51399 h -28.83545 q 0.44786,4.34082 3.13504,6.51123 2.68717,2.17041 7.5103,2.17041 3.89296,0 7.95817,-1.13688 4.09967,-1.17133 8.40604,-3.514 v 9.50847 q -4.37527,1.65364 -8.75054,2.48047 -4.37528,0.86127 -8.75055,0.86127 -10.47309,0 -16.2953,-5.30545 -5.78776,-5.33989 -5.78776,-14.95171 0,-9.43956 5.68441,-14.84836 5.71886,-5.4088 15.70963,-5.4088 9.09506,0 14.53831,5.4777 5.4777,5.4777 5.4777,14.64166 z m -12.67795,-4.09967 q 0,-3.514 -2.06706,-5.64996 -2.03261,-2.17041 -5.3399,-2.17041 -3.5829,0 -5.82221,2.03261 -2.23931,1.99816 -2.79053,5.78776 z" />
        <path
           id="path5312"
           style="font-style:normal;font-variant:normal;font-weight:bold;font-stretch:normal;font-size:70.55555725px;font-family:Saab;-inkscape-font-specification:'Saab Bold';fill:#509fe1;fill-opacity:1;stroke:none;stroke-width:1.5;stroke-miterlimit:4;stroke-dasharray:none;stroke-opacity:1"
           d="m 324.77967,275.99283 v 20.25716 h -12.33344 v -53.26118 h 12.33344 v 5.64996 q 2.54938,-3.37619 5.64996,-4.96094 3.10059,-1.61919 7.13135,-1.61919 7.13135,0 11.71332,5.6844 4.58198,5.64996 4.58198,14.57276 0,8.9228 -4.58198,14.6072 -4.58197,5.64996 -11.71332,5.64996 -4.03076,0 -7.13135,-1.58474 -3.10058,-1.6192 -5.64996,-4.99539 z m 8.19933,-24.97694 q -3.96186,0 -6.09782,2.92833 -2.10151,2.89388 -2.10151,8.37158 0,5.4777 2.10151,8.40603 2.13596,2.89388 6.09782,2.89388 3.96186,0 6.02892,-2.89388 2.10151,-2.89388 2.10151,-8.40603 0,-5.51215 -2.10151,-8.40603 -2.06706,-2.89388 -6.02892,-2.89388 z" />
        <path
           id="path5314"
           style="font-style:normal;font-variant:normal;font-weight:bold;font-stretch:normal;font-size:70.55555725px;font-family:Saab;-inkscape-font-specification:'Saab Bold';fill:#509fe1;fill-opacity:1;stroke:none;stroke-width:1.5;stroke-miterlimit:4;stroke-dasharray:none;stroke-opacity:1"
           d="m 375.35367,275.99283 v 20.25716 h -12.33344 v -53.26118 h 12.33344 v 5.64996 q 2.54937,-3.37619 5.64996,-4.96094 3.10058,-1.61919 7.13135,-1.61919 7.13134,0 11.71332,5.6844 4.58198,5.64996 4.58198,14.57276 0,8.9228 -4.58198,14.6072 -4.58198,5.64996 -11.71332,5.64996 -4.03077,0 -7.13135,-1.58474 -3.10059,-1.6192 -5.64996,-4.99539 z m 8.19933,-24.97694 q -3.96186,0 -6.09782,2.92833 -2.10151,2.89388 -2.10151,8.37158 0,5.4777 2.10151,8.40603 2.13596,2.89388 6.09782,2.89388 3.96186,0 6.02892,-2.89388 2.10151,-2.89388 2.10151,-8.40603 0,-5.51215 -2.10151,-8.40603 -2.06706,-2.89388 -6.02892,-2.89388 z" />
        <path
           id="path5316"
           style="font-style:normal;font-variant:normal;font-weight:bold;font-stretch:normal;font-size:70.55555725px;font-family:Saab;-inkscape-font-specification:'Saab Bold';fill:#509fe1;fill-opacity:1;stroke:none;stroke-width:1.5;stroke-miterlimit:4;stroke-dasharray:none;stroke-opacity:1"
           d="m 452.1104,262.178 v 3.51399 h -28.83545 q 0.44787,4.34082 3.13504,6.51123 2.68718,2.17041 7.51031,2.17041 3.89296,0 7.95817,-1.13688 4.09966,-1.17133 8.40603,-3.514 v 9.50847 q -4.37527,1.65364 -8.75054,2.48047 -4.37527,0.86127 -8.75054,0.86127 -10.47309,0 -16.2953,-5.30545 -5.78777,-5.33989 -5.78777,-14.95171 0,-9.43956 5.68441,-14.84836 5.71886,-5.4088 15.70964,-5.4088 9.09505,0 14.5383,5.4777 5.4777,5.4777 5.4777,14.64166 z m -12.67795,-4.09967 q 0,-3.514 -2.06706,-5.64996 -2.0326,-2.17041 -5.33989,-2.17041 -3.5829,0 -5.82222,2.03261 -2.23931,1.99816 -2.79052,5.78776 z" />
        <path
           id="path5318"
           style="font-style:normal;font-variant:normal;font-weight:bold;font-stretch:normal;font-size:70.55555725px;font-family:Saab;-inkscape-font-specification:'Saab Bold';fill:#509fe1;fill-opacity:1;stroke:none;stroke-width:1.5;stroke-miterlimit:4;stroke-dasharray:none;stroke-opacity:1"
           d="m 490.07536,253.49635 q -1.61919,-0.75792 -3.23839,-1.10243 -1.58474,-0.37896 -3.20394,-0.37896 -4.75423,0 -7.33805,3.06614 -2.54937,3.03168 -2.54937,8.71609 v 17.77669 h -12.33344 v -38.58507 h 12.33344 v 6.33898 q 2.37712,-3.78961 5.44325,-5.51215 3.10059,-1.757 7.40696,-1.757 0.62011,0 1.34358,0.0689 0.72347,0.0344 2.10151,0.2067 z" />
      </g>
    </g>
  </g>
</svg>
