<?xml version="1.0" encoding="UTF-8" standalone="no"?>
<!-- Created with Inkscape (http://www.inkscape.org/) -->

<svg
   xmlns:dc="http://purl.org/dc/elements/1.1/"
   xmlns:cc="http://creativecommons.org/ns#"
   xmlns:rdf="http://www.w3.org/1999/02/22-rdf-syntax-ns#"
   xmlns:svg="http://www.w3.org/2000/svg"
   xmlns="http://www.w3.org/2000/svg"
   xmlns:sodipodi="http://sodipodi.sourceforge.net/DTD/sodipodi-0.dtd"
   xmlns:inkscape="http://www.inkscape.org/namespaces/inkscape"
   width="350mm"
   height="203mm"
   viewBox="0 0 350 203"
   version="1.1"
   id="svg8"
   inkscape:version="0.92.5 (0.92.5+68)"
   sodipodi:docname="lodr.svg">
  <defs
     id="defs2" />
  <sodipodi:namedview
     id="base"
     pagecolor="#ffffff"
     bordercolor="#666666"
     borderopacity="1.0"
     inkscape:pageopacity="0.0"
     inkscape:pageshadow="2"
     inkscape:zoom="0.55048947"
     inkscape:cx="396.85039"
     inkscape:cy="335.88747"
     inkscape:document-units="mm"
     inkscape:current-layer="layer1"
     showgrid="false"
     inkscape:window-width="1859"
     inkscape:window-height="1056"
     inkscape:window-x="61"
     inkscape:window-y="24"
     inkscape:window-maximized="1" />
  <metadata
     id="metadata5">
    <rdf:RDF>
      <cc:Work
         rdf:about="">
        <dc:format>image/svg+xml</dc:format>
        <dc:type
           rdf:resource="http://purl.org/dc/dcmitype/StillImage" />
        <dc:title />
      </cc:Work>
    </rdf:RDF>
  </metadata>
  <g
     inkscape:label="Layer 1"
     inkscape:groupmode="layer"
     id="layer1"
     transform="translate(0,-94)">
    <rect
       style="fill:#090032;fill-opacity:1;stroke:none;stroke-width:4.35106993;stroke-linecap:round;stroke-linejoin:round;stroke-miterlimit:4;stroke-dasharray:none;stroke-opacity:1"
       id="rect815"
       width="350"
       height="203"
       x="0"
       y="94" />
    <rect
       style="fill:none;fill-opacity:1;stroke:#ffffff;stroke-width:5.60499954;stroke-linecap:round;stroke-linejoin:miter;stroke-miterlimit:4;stroke-dasharray:none;stroke-opacity:1"
       id="rect817"
       width="294.39499"
       height="29.395"
       x="27.8025"
       y="239.80249" />
    <rect
       style="fill:#ffffff;fill-opacity:1;stroke:none;stroke-width:2.53923059;stroke-linecap:round;stroke-linejoin:miter;stroke-miterlimit:4;stroke-dasharray:none;stroke-opacity:1"
       id="rect817-3"
       width="150"
       height="21"
       x="32"
       y="244" />
    <g
       aria-label="lödr"
       transform="matrix(3.2750533,0,0,3.2750533,628.82516,-1257.774)"
       style="font-style:italic;font-variant:normal;font-weight:bold;font-stretch:normal;font-size:40px;line-height:1.25;font-family:monospace;-inkscape-font-specification:'monospace Bold Italic';letter-spacing:0px;word-spacing:0px;fill:#ffffff;fill-opacity:1"
       id="flowRoot834">
      <path
         d="m -176.71484,444.13672 q -0.0781,0.39062 -0.13672,0.72265 -0.0391,0.3125 -0.0391,0.41016 0,0.87891 0.60546,1.25 0.60547,0.35156 2.12891,0.35156 h 5.42969 l -0.87891,4.39453 h -5.80078 q -4.00391,0 -5.66406,-1.09375 -1.66016,-1.09375 -1.66016,-3.63281 0,-0.44922 0.0977,-1.13281 0.0977,-0.68359 0.27344,-1.54297 l 3.96484,-18.59375 h -5.97656 l 0.83984,-4.39453 h 11.67969 z"
         style=""
         id="path861" />
      <path
         d="m -148.25781,437.90625 q 0,-2.12891 -0.91797,-3.28125 -0.89844,-1.15234 -2.55859,-1.15234 -2.40235,0 -4.02344,2.65625 -1.6211,2.65625 -1.6211,6.66015 0,2.07031 0.9375,3.26172 0.95704,1.17188 2.57813,1.17188 2.36328,0 3.98437,-2.65625 1.6211,-2.67579 1.6211,-6.66016 z m -14.88281,5.03906 q 0,-6.28906 3.24218,-10.19531 3.26172,-3.92578 8.47657,-3.92578 4.19921,0 6.5625,2.36328 2.36328,2.34375 2.36328,6.52344 0,6.30859 -3.26172,10.21484 -3.24219,3.90625 -8.45703,3.90625 -4.19922,0 -6.5625,-2.34375 -2.36328,-2.36328 -2.36328,-6.54297 z m 15.03906,-22.63672 h 4.64844 l -0.95704,4.80469 h -4.60937 z m -7.71485,0 h 4.62891 l -0.95703,4.80469 h -4.58984 z"
         style=""
         id="path863" />
      <path
         d="m -128.43359,433.51172 q -2.16797,0 -3.73047,2.77344 -1.5625,2.7539 -1.5625,6.69921 0,1.97266 0.80078,3.06641 0.82031,1.09375 2.24609,1.09375 2.22657,0 3.84766,-2.69531 1.64062,-2.71485 1.64062,-6.58203 0,-2.03125 -0.8789,-3.1836 -0.87891,-1.17187 -2.36328,-1.17187 z m 4.3164,-0.0391 2.44141,-12.59766 h 5.72265 l -5.91796,30.39062 h -5.6836 l 0.60547,-3.24218 q -1.28906,1.875 -2.91015,2.85156 -1.60157,0.95703 -3.45704,0.95703 -2.85156,0 -4.53125,-2.14844 -1.66015,-2.14843 -1.66015,-5.85937 0,-2.51953 0.60547,-5.01953 0.60547,-2.51953 1.69922,-4.60938 1.34765,-2.51953 3.39843,-3.94531 2.05078,-1.42578 4.33594,-1.42578 2.1875,0 3.61328,1.25 1.44531,1.23047 1.73828,3.39844 z"
         style=""
         id="path865" />
      <path
         d="m -93.804687,435.34766 q -0.9375,-0.83985 -2.089844,-1.23047 -1.152344,-0.41016 -2.597656,-0.41016 -3.242193,0 -5.000003,1.71875 -1.73828,1.71875 -2.51953,5.76172 l -1.95312,10.07812 h -5.76172 l 4.27734,-21.875 h 5.72266 l -0.6836,3.39844 q 1.21094,-1.875 3.14453,-2.89062 1.933599,-1.03516 4.257818,-1.03516 1.210937,0 2.285156,0.29297 1.09375,0.29297 1.953125,0.82031 z"
         style=""
         id="path867" />
    </g>
  </g>
</svg>
