<?xml version="1.0" encoding="UTF-8" standalone="no"?>
<!-- Created with Inkscape (http://www.inkscape.org/) -->

<svg
   xmlns:dc="http://purl.org/dc/elements/1.1/"
   xmlns:cc="http://creativecommons.org/ns#"
   xmlns:rdf="http://www.w3.org/1999/02/22-rdf-syntax-ns#"
   xmlns:svg="http://www.w3.org/2000/svg"
   xmlns="http://www.w3.org/2000/svg"
   xmlns:sodipodi="http://sodipodi.sourceforge.net/DTD/sodipodi-0.dtd"
   xmlns:inkscape="http://www.inkscape.org/namespaces/inkscape"
   width="140mm"
   height="140mm"
   viewBox="0 0 140 140"
   version="1.1"
   id="svg8"
   inkscape:version="0.92.4 (f8dce91, 2019-08-02)"
   sodipodi:docname="ultradocs.svg">
  <defs
     id="defs2" />
  <sodipodi:namedview
     id="base"
     pagecolor="#ffffff"
     bordercolor="#666666"
     borderopacity="1.0"
     inkscape:pageopacity="0.0"
     inkscape:pageshadow="2"
     inkscape:zoom="0.83039936"
     inkscape:cx="274.90819"
     inkscape:cy="503.60422"
     inkscape:document-units="mm"
     inkscape:current-layer="layer1"
     showgrid="false"
     inkscape:window-width="1859"
     inkscape:window-height="1056"
     inkscape:window-x="61"
     inkscape:window-y="24"
     inkscape:window-maximized="1" />
  <metadata
     id="metadata5">
    <rdf:RDF>
      <cc:Work
         rdf:about="">
        <dc:format>image/svg+xml</dc:format>
        <dc:type
           rdf:resource="http://purl.org/dc/dcmitype/StillImage" />
        <dc:title></dc:title>
      </cc:Work>
    </rdf:RDF>
  </metadata>
  <g
     inkscape:label="Layer 1"
     inkscape:groupmode="layer"
     id="layer1"
     transform="translate(0,-157)">
    <path
       sodipodi:type="star"
       style="fill:#c320e2;fill-opacity:1;stroke-width:0.3966417"
       id="path815"
       sodipodi:sides="20"
       sodipodi:cx="69.332726"
       sodipodi:cy="227.66727"
       sodipodi:r1="69.337341"
       sodipodi:r2="58.936733"
       sodipodi:arg1="0.93094151"
       sodipodi:arg2="1.0880211"
       inkscape:flatsided="false"
       inkscape:rounded="0"
       inkscape:randomized="0"
       d="m 110.73259,283.28847 -14.039134,-3.42035 -5.175011,13.49131 -12.295069,-7.59127 -9.090773,11.23183 -9.347473,-11.01911 -12.116667,7.8729 -5.48488,-13.36833 -13.956498,3.74333 L 28.141696,269.81982 13.711527,269.06714 17.131873,255.028 3.6405591,249.85299 11.231834,237.55792 -1.923749e-6,228.46714 11.019115,219.11967 3.1462075,207.003 l 13.3683315,-5.48488 -3.743325,-13.95649 14.40896,-1.08539 0.752682,-14.43017 14.039139,3.42034 5.175011,-13.49131 12.295069,7.59128 9.090773,-11.23184 9.347473,11.01912 12.116667,-7.87291 5.48488,13.36833 13.956502,-3.74332 1.08539,14.40896 14.43016,0.75268 -3.42034,14.03914 13.49131,5.17501 -7.59127,12.29507 11.23183,9.09077 -11.01911,9.34747 7.8729,12.11667 -13.36833,5.48488 3.74333,13.9565 -14.40896,1.08539 z"
       inkscape:transform-center-x="0.24717408"
       inkscape:transform-center-y="-6.385607" />
    <g
       id="g911">
      <g
         id="flowRoot817"
         style="font-style:normal;font-variant:normal;font-weight:bold;font-stretch:normal;font-size:40px;line-height:1.25;font-family:Coda;-inkscape-font-specification:'Coda Bold';letter-spacing:0px;word-spacing:0px;fill:#fcfcfc;fill-opacity:1;stroke:none"
         transform="matrix(1.9725018,0,0,1.9725018,241.26001,-559.68655)"
         aria-label="&lt;/&gt;">
        <path
           id="path887"
           style=""
           d="m -95.089844,401.61439 -13.593746,-8.45703 v -3.22265 l 13.593746,-8.76954 v 4.60938 l -10.136716,5.60547 10.136716,5.78125 z" />
        <path
           id="path889"
           style=""
           d="m -81.496094,376.57533 -7.148437,30.11719 h -3.496094 l 7.167969,-30.11719 z" />
        <path
           id="path891"
           style=""
           d="m -64.582031,393.15736 -13.632813,8.45703 v -4.43359 l 10.15625,-5.78125 -10.15625,-5.625 v -4.60938 l 13.632813,8.76954 z" />
      </g>
      <g
         id="g899">
        <rect
           style="fill:#fcfcfc;fill-opacity:1;stroke-width:0.28179407"
           id="rect825"
           width="22.342592"
           height="5.3896604"
           x="33.815128"
           y="250.61678" />
        <rect
           style="fill:#fcfcfc;fill-opacity:1;stroke-width:0.40587753"
           id="rect825-2"
           width="46.351078"
           height="5.3896608"
           x="58.852551"
           y="250.56778" />
        <rect
           style="fill:#fcfcfc;fill-opacity:1;stroke-width:0.40544826"
           id="rect825-2-9"
           width="46.253086"
           height="5.3896613"
           x="33.668137"
           y="260.66113" />
        <rect
           style="fill:#fcfcfc;fill-opacity:1;stroke-width:0.28241137"
           id="rect825-2-9-9"
           width="22.440586"
           height="5.3896613"
           x="82.518051"
           y="260.66113" />
        <rect
           style="fill:#fcfcfc;fill-opacity:1;stroke-width:0.35605338"
           id="rect825-2-9-9-6"
           width="35.669754"
           height="5.3896613"
           x="51.992985"
           y="269.97055" />
      </g>
    </g>
  </g>
</svg>
