<?xml version="1.0" encoding="UTF-8" standalone="no"?>
<!-- Created with Inkscape (http://www.inkscape.org/) -->

<svg
   xmlns:dc="http://purl.org/dc/elements/1.1/"
   xmlns:cc="http://creativecommons.org/ns#"
   xmlns:rdf="http://www.w3.org/1999/02/22-rdf-syntax-ns#"
   xmlns:svg="http://www.w3.org/2000/svg"
   xmlns="http://www.w3.org/2000/svg"
   xmlns:sodipodi="http://sodipodi.sourceforge.net/DTD/sodipodi-0.dtd"
   xmlns:inkscape="http://www.inkscape.org/namespaces/inkscape"
   width="125mm"
   height="47mm"
   viewBox="0 0 125 47"
   version="1.1"
   id="svg8"
   inkscape:version="0.92.4 (f8dce91, 2019-08-02)"
   sodipodi:docname="datalemon.svg">
  <defs
     id="defs2">
    <path
       style="fill:none;stroke:#959915;stroke-width:0.26458332px;stroke-linecap:butt;stroke-linejoin:miter;stroke-opacity:1"
       d="m 17.252255,260.62889 c 8.223919,-5.04779 17.723963,-8.13885 27.734458,-8.76273"
       id="path1129-6"
       inkscape:connector-curvature="0"
       sodipodi:nodetypes="cc" />
  </defs>
  <sodipodi:namedview
     id="base"
     pagecolor="#ffffff"
     bordercolor="#666666"
     borderopacity="1.0"
     inkscape:pageopacity="0.0"
     inkscape:pageshadow="2"
     inkscape:zoom="1.77"
     inkscape:cx="148.01437"
     inkscape:cy="126.02683"
     inkscape:document-units="mm"
     inkscape:current-layer="g1033"
     showgrid="false"
     inkscape:snap-nodes="false"
     inkscape:snap-others="true"
     inkscape:window-width="1859"
     inkscape:window-height="1056"
     inkscape:window-x="61"
     inkscape:window-y="24"
     inkscape:window-maximized="1" />
  <metadata
     id="metadata5">
    <rdf:RDF>
      <cc:Work
         rdf:about="">
        <dc:format>image/svg+xml</dc:format>
        <dc:type
           rdf:resource="http://purl.org/dc/dcmitype/StillImage" />
        <dc:title></dc:title>
      </cc:Work>
    </rdf:RDF>
  </metadata>
  <g
     inkscape:label="Layer 1"
     inkscape:groupmode="layer"
     id="layer1"
     transform="translate(0,-250)">
    <g
       id="g1064"
       transform="translate(11.799414,16.695334)">
      <g
         style="fill:#333333;fill-opacity:1;stroke:#333333;stroke-width:1.25;stroke-miterlimit:4;stroke-dasharray:none;stroke-opacity:1"
         id="g1027">
        <path
           style="font-style:normal;font-variant:normal;font-weight:normal;font-stretch:normal;font-size:40px;line-height:1.25;font-family:Ubuntu;-inkscape-font-specification:Ubuntu;letter-spacing:0px;word-spacing:0px;fill:#333333;fill-opacity:1;stroke:#333333;stroke-width:1.25;stroke-miterlimit:4;stroke-dasharray:none;stroke-opacity:1"
           inkscape:connector-curvature="0"
           id="path825"
           d="m 65.061948,250.19121 q 0,1.78104 -0.554106,3.10693 -0.554096,1.3061 -1.563351,2.17683 -1.009264,0.85094 -2.414307,1.2863 -1.405038,0.41558 -3.087138,0.41558 -0.831148,0 -1.840409,-0.0792 -0.989468,-0.0594 -1.800831,-0.25726 v -13.29844 q 0.811363,-0.19789 1.800831,-0.25726 1.009261,-0.0792 1.840409,-0.0792 1.6821,0 3.087138,0.43537 1.405043,0.41557 2.414307,1.28631 1.009255,0.85094 1.563351,2.17682 0.554106,1.3061 0.554106,3.08714 z m -7.460583,5.30354 q 2.730926,0 4.076602,-1.38525 1.345674,-1.40504 1.345674,-3.91829 0,-2.51325 -1.345674,-3.8985 -1.345676,-1.40504 -4.076602,-1.40504 -0.811363,0 -1.266518,0.0198 -0.435369,0.0198 -0.613473,0.0396 v 10.48835 q 0.178104,0.0198 0.613473,0.0396 0.455155,0.0198 1.266518,0.0198 z" />
        <path
           style="font-style:normal;font-variant:normal;font-weight:normal;font-stretch:normal;font-size:40px;line-height:1.25;font-family:Ubuntu;-inkscape-font-specification:Ubuntu;letter-spacing:0px;word-spacing:0px;fill:#333333;fill-opacity:1;stroke:#333333;stroke-width:1.25;stroke-miterlimit:4;stroke-dasharray:none;stroke-opacity:1"
           inkscape:connector-curvature="0"
           id="path827"
           d="m 71.003077,255.73223 q 0.653053,0 1.147786,-0.0198 0.51452,-0.0396 0.850937,-0.11874 v -3.06735 q -0.197892,-0.099 -0.653042,-0.15831 -0.435371,-0.0792 -1.06863,-0.0792 -0.415571,0 -0.890522,0.0594 -0.455155,0.0594 -0.85094,0.25726 -0.375999,0.1781 -0.633259,0.51452 -0.257257,0.31663 -0.257257,0.85095 0,0.98946 0.633259,1.38525 0.63326,0.376 1.721668,0.376 z m -0.158311,-9.22184 q 1.1082,0 1.860201,0.29684 0.771779,0.27705 1.226934,0.81136 0.474943,0.51453 0.672838,1.24673 0.197892,0.71242 0.197892,1.58315 v 6.43154 q -0.237471,0.0396 -0.672833,0.11874 -0.415581,0.0594 -0.949893,0.11873 -0.534308,0.0594 -1.167572,0.099 -0.613463,0.0594 -1.226939,0.0594 -0.870725,0 -1.602931,-0.17811 -0.73221,-0.1781 -1.266523,-0.5541 -0.534308,-0.39579 -0.831154,-1.02905 -0.296839,-0.63325 -0.296839,-1.52378 0,-0.85094 0.336423,-1.46441 0.356209,-0.61347 0.949883,-0.98946 0.59368,-0.376 1.385261,-0.55411 0.791567,-0.1781 1.662303,-0.1781 0.277053,0 0.573886,0.0396 0.296842,0.0198 0.554107,0.0792 0.277047,0.0396 0.47494,0.0791 0.197898,0.0396 0.27705,0.0594 v -0.51452 q 0,-0.45516 -0.09895,-0.89052 -0.09895,-0.45516 -0.356208,-0.79158 -0.257257,-0.3562 -0.712412,-0.5541 -0.435364,-0.21768 -1.147786,-0.21768 -0.910305,0 -1.602936,0.13853 -0.672838,0.11873 -1.009259,0.25726 l -0.217683,-1.52378 q 0.356209,-0.15832 1.187363,-0.29684 0.831156,-0.15832 1.800833,-0.15832 z" />
        <path
           style="font-style:normal;font-variant:normal;font-weight:normal;font-stretch:normal;font-size:40px;line-height:1.25;font-family:Ubuntu;-inkscape-font-specification:Ubuntu;letter-spacing:0px;word-spacing:0px;fill:#333333;fill-opacity:1;stroke:#333333;stroke-width:1.25;stroke-miterlimit:4;stroke-dasharray:none;stroke-opacity:1"
           inkscape:connector-curvature="0"
           id="path829"
           d="m 79.561662,246.76765 h 3.898501 v 1.54357 h -3.898501 v 4.74944 q 0,0.77179 0.118738,1.28631 0.118734,0.49474 0.356205,0.79158 0.237475,0.27705 0.593683,0.39578 0.356206,0.11874 0.831152,0.11874 0.831151,0 1.325885,-0.1781 0.514524,-0.1979 0.712417,-0.27705 l 0.356208,1.52377 q -0.27705,0.13853 -0.969679,0.33642 -0.692626,0.21769 -1.583148,0.21769 -1.048834,0 -1.741461,-0.25727 -0.672838,-0.27705 -1.088413,-0.81136 -0.415576,-0.53431 -0.59368,-1.3061 -0.158316,-0.79157 -0.158316,-1.82062 v -9.18225 l 1.840409,-0.31663 z" />
        <path
           style="font-style:normal;font-variant:normal;font-weight:normal;font-stretch:normal;font-size:40px;line-height:1.25;font-family:Ubuntu;-inkscape-font-specification:Ubuntu;letter-spacing:0px;word-spacing:0px;fill:#333333;fill-opacity:1;stroke:#333333;stroke-width:1.25;stroke-miterlimit:4;stroke-dasharray:none;stroke-opacity:1"
           inkscape:connector-curvature="0"
           id="path831"
           d="m 89.285034,255.73223 q 0.653047,0 1.147781,-0.0198 0.514524,-0.0396 0.850942,-0.11874 v -3.06735 q -0.197892,-0.099 -0.653047,-0.15831 -0.435367,-0.0792 -1.068626,-0.0792 -0.415576,0 -0.890521,0.0594 -0.455155,0.0594 -0.850942,0.25726 -0.375997,0.1781 -0.633259,0.51452 -0.25726,0.31663 -0.25726,0.85095 0,0.98946 0.633259,1.38525 0.633259,0.376 1.721673,0.376 z m -0.158316,-9.22184 q 1.108204,0 1.8602,0.29684 0.771785,0.27705 1.226939,0.81136 0.474943,0.51453 0.672838,1.24673 0.197893,0.71242 0.197893,1.58315 v 6.43154 q -0.237472,0.0396 -0.672838,0.11874 -0.415576,0.0594 -0.949889,0.11873 -0.534313,0.0594 -1.167572,0.099 -0.613468,0.0594 -1.226939,0.0594 -0.87073,0 -1.602935,-0.17811 -0.732208,-0.1781 -1.266518,-0.5541 -0.534313,-0.39579 -0.831155,-1.02905 -0.296838,-0.63325 -0.296838,-1.52378 0,-0.85094 0.336417,-1.46441 0.356209,-0.61347 0.949889,-0.98946 0.59368,-0.376 1.385255,-0.55411 0.791573,-0.1781 1.662303,-0.1781 0.277053,0 0.573892,0.0396 0.296841,0.0198 0.554101,0.0792 0.277053,0.0396 0.474946,0.0791 0.197892,0.0396 0.27705,0.0594 v -0.51452 q 0,-0.45516 -0.09895,-0.89052 -0.09895,-0.45516 -0.356209,-0.79158 -0.257262,-0.3562 -0.712417,-0.5541 -0.435364,-0.21768 -1.147781,-0.21768 -0.910309,0 -1.602938,0.13853 -0.672836,0.11873 -1.009256,0.25726 l -0.217683,-1.52378 q 0.356208,-0.15832 1.187362,-0.29684 0.831152,-0.15832 1.800829,-0.15832 z" />
        <path
           style="font-style:normal;font-variant:normal;font-weight:normal;font-stretch:normal;font-size:40px;line-height:1.25;font-family:Ubuntu;-inkscape-font-specification:Ubuntu;letter-spacing:0px;word-spacing:0px;fill:#333333;fill-opacity:1;stroke:#333333;stroke-width:1.25;stroke-miterlimit:4;stroke-dasharray:none;stroke-opacity:1"
           inkscape:connector-curvature="0"
           id="path833"
           d="m 62.053969,273.06487 v 1.6623 h -8.252163 v -13.71401 h 1.919568 v 12.05171 z" />
        <path
           style="font-style:normal;font-variant:normal;font-weight:normal;font-stretch:normal;font-size:40px;line-height:1.25;font-family:Ubuntu;-inkscape-font-specification:Ubuntu;letter-spacing:0px;word-spacing:0px;fill:#333333;fill-opacity:1;stroke:#333333;stroke-width:1.25;stroke-miterlimit:4;stroke-dasharray:none;stroke-opacity:1"
           inkscape:connector-curvature="0"
           id="path835"
           d="m 63.158462,269.60173 q 0,-1.36546 0.395787,-2.37472 0.395783,-1.02905 1.04883,-1.70188 0.65305,-0.67284 1.503989,-1.00926 0.850943,-0.33642 1.741464,-0.33642 2.077881,0 3.186089,1.3061 1.108204,1.28631 1.108204,3.93808 0,0.11873 0,0.31663 0,0.1781 -0.01979,0.33642 h -7.045007 q 0.118732,1.60294 0.930095,2.43409 0.811363,0.83115 2.533042,0.83115 0.969674,0 1.622726,-0.15832 0.672838,-0.1781 1.009256,-0.33641 l 0.257262,1.54357 q -0.336423,0.1781 -1.187365,0.37599 -0.831149,0.19789 -1.899777,0.19789 -1.345676,0 -2.335144,-0.39578 -0.969671,-0.41558 -1.60293,-1.12799 -0.633265,-0.71242 -0.949894,-1.6821 -0.296836,-0.98946 -0.296837,-2.15704 z m 7.06479,-1.00925 q 0.01979,-1.24673 -0.633259,-2.03831 -0.633254,-0.81136 -1.761247,-0.81136 -0.633259,0 -1.127992,0.25726 -0.474949,0.23747 -0.811364,0.63326 -0.336423,0.39579 -0.53431,0.91031 -0.178104,0.51453 -0.237479,1.04884 z" />
        <path
           style="font-style:normal;font-variant:normal;font-weight:normal;font-stretch:normal;font-size:40px;line-height:1.25;font-family:Ubuntu;-inkscape-font-specification:Ubuntu;letter-spacing:0px;word-spacing:0px;fill:#333333;fill-opacity:1;stroke:#333333;stroke-width:1.25;stroke-miterlimit:4;stroke-dasharray:none;stroke-opacity:1"
           inkscape:connector-curvature="0"
           id="path837"
           d="m 74.786552,264.73355 q 0.63326,-0.15831 1.662306,-0.33641 1.048835,-0.17811 2.414299,-0.17811 0.989468,0 1.662306,0.27705 0.672838,0.25726 1.127993,0.77179 0.138525,-0.099 0.435366,-0.27705 0.296839,-0.17811 0.732205,-0.33642 0.435364,-0.17811 0.969677,-0.29684 0.534313,-0.13853 1.147784,-0.13853 1.18736,0 1.939353,0.35621 0.751996,0.33642 1.167572,0.96968 0.435367,0.63326 0.573892,1.50399 0.158313,0.87073 0.158313,1.89977 v 5.77849 h -1.840407 v -5.3827 q 0,-0.91031 -0.09895,-1.56336 -0.07916,-0.65305 -0.33642,-1.08841 -0.237472,-0.43537 -0.672838,-0.63326 -0.415576,-0.21768 -1.088414,-0.21768 -0.930098,0 -1.543569,0.25726 -0.59368,0.23747 -0.811363,0.43536 0.158316,0.51453 0.237471,1.128 0.07916,0.61347 0.07916,1.2863 v 5.77849 h -1.840409 v -5.3827 q 0,-0.91031 -0.09895,-1.56336 -0.09895,-0.65305 -0.356208,-1.08841 -0.237472,-0.43537 -0.672838,-0.63326 -0.415576,-0.21768 -1.068623,-0.21768 -0.277051,0 -0.59368,0.0198 -0.31663,0.0198 -0.613471,0.0594 -0.277051,0.0198 -0.514522,0.0594 -0.237474,0.0396 -0.31663,0.0594 v 8.68753 h -1.84041 z" />
        <path
           style="font-style:normal;font-variant:normal;font-weight:normal;font-stretch:normal;font-size:40px;line-height:1.25;font-family:Ubuntu;-inkscape-font-specification:Ubuntu;letter-spacing:0px;word-spacing:0px;fill:#333333;fill-opacity:1;stroke:#333333;stroke-width:1.25;stroke-miterlimit:4;stroke-dasharray:none;stroke-opacity:1"
           inkscape:connector-curvature="0"
           id="path839"
           d="m 100.91499,269.58194 q 0,1.22694 -0.35621,2.21641 -0.35621,0.98947 -1.00926,1.70188 -0.633259,0.71242 -1.52378,1.10821 -0.890522,0.376 -1.939356,0.376 -1.048835,0 -1.939356,-0.376 -0.890519,-0.39579 -1.543569,-1.10821 -0.633259,-0.71241 -0.989468,-1.70188 -0.356208,-0.98947 -0.356208,-2.21641 0,-1.20715 0.356208,-2.19661 0.356209,-1.00926 0.989468,-1.72168 0.65305,-0.71241 1.543569,-1.08841 0.890521,-0.39579 1.939356,-0.39579 1.048834,0 1.939356,0.39579 0.890521,0.376 1.52378,1.08841 0.65305,0.71242 1.00926,1.72168 0.35621,0.98946 0.35621,2.19661 z m -1.919573,0 q 0,-1.74146 -0.791573,-2.75072 -0.771784,-1.02904 -2.11746,-1.02904 -1.345676,0 -2.137249,1.02904 -0.771784,1.00926 -0.771784,2.75072 0,1.74147 0.771784,2.77051 0.791573,1.00926 2.137249,1.00926 1.345676,0 2.11746,-1.00926 0.791573,-1.02904 0.791573,-2.77051 z" />
        <path
           style="font-style:normal;font-variant:normal;font-weight:normal;font-stretch:normal;font-size:40px;line-height:1.25;font-family:Ubuntu;-inkscape-font-specification:Ubuntu;letter-spacing:0px;word-spacing:0px;fill:#333333;fill-opacity:1;stroke:#333333;stroke-width:1.25;stroke-miterlimit:4;stroke-dasharray:none;stroke-opacity:1"
           inkscape:connector-curvature="0"
           id="path841"
           d="m 103.5043,264.73355 q 0.63326,-0.15831 1.6821,-0.33641 1.04883,-0.17811 2.4143,-0.17811 1.22693,0 2.0383,0.35621 0.81136,0.33642 1.28631,0.96968 0.49473,0.61347 0.69262,1.4842 0.1979,0.87073 0.1979,1.91956 v 5.77849 h -1.84041 v -5.3827 q 0,-0.94989 -0.13853,-1.62273 -0.11873,-0.67283 -0.41558,-1.08841 -0.29683,-0.41557 -0.79157,-0.59368 -0.49473,-0.19789 -1.22694,-0.19789 -0.29684,0 -0.61347,0.0198 -0.31663,0.0198 -0.61347,0.0594 -0.27705,0.0198 -0.51452,0.0594 -0.21768,0.0396 -0.31663,0.0594 v 8.68753 h -1.84041 z" />
      </g>
      <g
         id="g1043">
        <g
           id="g986"
           transform="rotate(-30.349011,29.153609,259.65284)">
          <path
             sodipodi:nodetypes="ccccccccc"
             inkscape:connector-curvature="0"
             id="path844"
             d="m 29.782003,234.85912 c -1.49718,0.0544 -2.978797,1.25354 -4.326277,2.58991 -7.931615,2.73734 -13.313333,11.95661 -13.06151,22.37532 0.270239,10.41541 6.103906,19.35106 14.159863,21.6892 1.205254,1.64071 3.193862,2.33973 4.423351,2.32232 1.152675,-0.022 3.177282,-0.53382 4.343749,-2.53347 7.931725,-2.7371 13.313642,-11.9563 13.061959,-22.37508 -0.270012,-10.41575 -6.103827,-19.35179 -14.160053,-21.6899 -1.396073,-1.22694 -3.102005,-2.37979 -4.441082,-2.3783 z"
             style="font-style:normal;font-variant:normal;font-weight:normal;font-stretch:normal;font-size:40px;line-height:1.25;font-family:Ubuntu;-inkscape-font-specification:Ubuntu;letter-spacing:0px;word-spacing:0px;fill:#eff817;fill-opacity:1;stroke:none;stroke-width:0.26239944;stroke-linecap:round;stroke-linejoin:round;stroke-miterlimit:4;stroke-dasharray:none;stroke-opacity:1" />
          <path
             sodipodi:nodetypes="ccccccccc"
             inkscape:connector-curvature="0"
             id="path844-7"
             d="m 29.782003,234.85912 c -1.49718,0.0544 -2.978798,1.25354 -4.326277,2.58991 -7.931616,2.73734 -13.313334,11.95661 -13.061511,22.37532 0.270239,10.41541 6.103906,19.35106 14.159863,21.6892 1.205254,1.64071 3.193863,2.33973 4.423351,2.32232 -0.947193,-0.40967 -3.76109,-2.33948 -3.778319,-3.41203 -5.644845,-3.14096 -8.929111,-9.43172 -10.021769,-20.62678 -0.270009,-10.15699 4.502798,-18.12646 9.414846,-21.49819 0.0092,-1.22694 0.975271,-2.6659 3.189816,-3.43975 z"
             style="font-style:normal;font-variant:normal;font-weight:normal;font-stretch:normal;font-size:40px;line-height:1.25;font-family:Ubuntu;-inkscape-font-specification:Ubuntu;letter-spacing:0px;word-spacing:0px;fill:#dee338;fill-opacity:1;stroke:none;stroke-width:0.26239944;stroke-linecap:round;stroke-linejoin:round;stroke-miterlimit:4;stroke-dasharray:none;stroke-opacity:1" />
        </g>
        <g
           id="g1033">
          <path
             style="font-style:normal;font-variant:normal;font-weight:normal;font-stretch:normal;font-size:40px;line-height:1.25;font-family:Ubuntu;-inkscape-font-specification:Ubuntu;letter-spacing:0px;word-spacing:0px;fill:none;fill-opacity:1;stroke:#119d1d;stroke-width:1.73190272;stroke-linecap:round;stroke-linejoin:miter;stroke-miterlimit:4;stroke-dasharray:none;stroke-opacity:1"
             d="m 17.099251,238.68177 -2.630375,-4.4137"
             id="path868"
             inkscape:connector-curvature="0" />
          <path
             style="font-style:normal;font-variant:normal;font-weight:normal;font-stretch:normal;font-size:40px;line-height:1.25;font-family:Ubuntu;-inkscape-font-specification:Ubuntu;letter-spacing:0px;word-spacing:0px;fill:none;fill-opacity:1;stroke:#119d1d;stroke-width:1.5;stroke-linecap:butt;stroke-linejoin:miter;stroke-miterlimit:4;stroke-dasharray:none;stroke-opacity:1"
             d="m 11.306793,237.85092 3.842333,-2.72255"
             id="path868-6"
             inkscape:connector-curvature="0" />
          <path
             style="font-style:normal;font-variant:normal;font-weight:normal;font-stretch:normal;font-size:40px;line-height:1.25;font-family:Ubuntu;-inkscape-font-specification:Ubuntu;letter-spacing:0px;word-spacing:0px;fill:#26ca34;fill-opacity:1;stroke:none;stroke-width:0.26458332px;stroke-linecap:butt;stroke-linejoin:miter;stroke-miterlimit:4;stroke-dasharray:none;stroke-opacity:1"
             d="m -11.799413,245.11002 c 7.3894156,-2.48601 11.8582447,-8.96441 15.2057813,-10.54592 2.0097554,-0.72681 7.3203287,-1.61058 10.1502587,1.33277 6.987842,12.11335 -20.2651286,17.25059 -25.35604,9.21315 z"
             id="path885"
             inkscape:connector-curvature="0"
             sodipodi:nodetypes="cccc" />
          <path
             style="font-style:normal;font-variant:normal;font-weight:normal;font-stretch:normal;font-size:40px;line-height:1.25;font-family:Ubuntu;-inkscape-font-specification:Ubuntu;letter-spacing:0px;word-spacing:0px;fill:#119d1d;fill-opacity:1;stroke:none;stroke-width:0.26458332px;stroke-linecap:butt;stroke-linejoin:miter;stroke-miterlimit:4;stroke-dasharray:none;stroke-opacity:1"
             d="m -11.799414,245.11002 c 4.1301973,4.05219 13.7628048,3.72491 18.1109167,1.65755 1.6098374,-0.71856 10.3921213,-3.15891 7.2451243,-10.8707 6.98784,12.11335 -20.2651289,17.25059 -25.356041,9.21315 z"
             id="path885-5"
             inkscape:connector-curvature="0"
             sodipodi:nodetypes="cccc" />
        </g>
        <path
           style="fill:none;stroke:none;stroke-width:0.26458332px;stroke-linecap:butt;stroke-linejoin:miter;stroke-opacity:1"
           d="m 17.252255,260.62889 c 8.223919,-5.04779 17.723963,-8.13885 27.734458,-8.76273"
           id="path1129"
           inkscape:connector-curvature="0"
           sodipodi:nodetypes="cc" />
        <path
           style="fill:none;stroke:none;stroke-width:0.26458332px;stroke-linecap:butt;stroke-linejoin:miter;stroke-opacity:1"
           d="m -54.429749,269.69131 c 8.223918,-5.04779 17.723962,-8.13885 27.734456,-8.76273"
           id="path1192"
           inkscape:connector-curvature="0"
           sodipodi:nodetypes="cc" />
      </g>
    </g>
  </g>
</svg>
