<?xml version="1.0" encoding="UTF-8" standalone="no"?>
<!-- Created with Inkscape (http://www.inkscape.org/) -->

<svg
   xmlns:dc="http://purl.org/dc/elements/1.1/"
   xmlns:cc="http://creativecommons.org/ns#"
   xmlns:rdf="http://www.w3.org/1999/02/22-rdf-syntax-ns#"
   xmlns:svg="http://www.w3.org/2000/svg"
   xmlns="http://www.w3.org/2000/svg"
   xmlns:xlink="http://www.w3.org/1999/xlink"
   xmlns:sodipodi="http://sodipodi.sourceforge.net/DTD/sodipodi-0.dtd"
   xmlns:inkscape="http://www.inkscape.org/namespaces/inkscape"
   width="103mm"
   height="203mm"
   viewBox="0 0 103 203"
   version="1.1"
   id="svg8"
   inkscape:version="0.92.4 (f8dce91, 2019-08-02)"
   sodipodi:docname="divine.svg">
  <defs
     id="defs2">
    <linearGradient
       inkscape:collect="always"
       id="linearGradient902">
      <stop
         style="stop-color:#940ed2;stop-opacity:1;"
         offset="0"
         id="stop898" />
      <stop
         style="stop-color:#3e6ce8;stop-opacity:1"
         offset="1"
         id="stop900" />
    </linearGradient>
    <linearGradient
       inkscape:collect="always"
       xlink:href="#linearGradient902"
       id="linearGradient904"
       x1="58.877159"
       y1="146.69777"
       x2="52.929493"
       y2="234.28062"
       gradientUnits="userSpaceOnUse"
       spreadMethod="reflect" />
    <linearGradient
       inkscape:collect="always"
       xlink:href="#linearGradient902"
       id="linearGradient906"
       gradientUnits="userSpaceOnUse"
       x1="58.877159"
       y1="146.69777"
       x2="52.929493"
       y2="234.28062"
       spreadMethod="reflect" />
    <linearGradient
       inkscape:collect="always"
       xlink:href="#linearGradient902"
       id="linearGradient908"
       gradientUnits="userSpaceOnUse"
       x1="58.877159"
       y1="146.69777"
       x2="52.929493"
       y2="234.28062"
       spreadMethod="reflect" />
    <linearGradient
       inkscape:collect="always"
       xlink:href="#linearGradient902"
       id="linearGradient910"
       gradientUnits="userSpaceOnUse"
       x1="58.877159"
       y1="146.69777"
       x2="52.929493"
       y2="234.28062"
       spreadMethod="reflect" />
    <linearGradient
       inkscape:collect="always"
       xlink:href="#linearGradient902"
       id="linearGradient912"
       gradientUnits="userSpaceOnUse"
       x1="58.877159"
       y1="146.69777"
       x2="52.929493"
       y2="234.28062"
       spreadMethod="reflect" />
    <linearGradient
       inkscape:collect="always"
       xlink:href="#linearGradient902"
       id="linearGradient914"
       gradientUnits="userSpaceOnUse"
       x1="58.877159"
       y1="146.69777"
       x2="52.929493"
       y2="234.28062"
       spreadMethod="reflect" />
    <linearGradient
       inkscape:collect="always"
       xlink:href="#linearGradient902"
       id="linearGradient916"
       gradientUnits="userSpaceOnUse"
       x1="58.877159"
       y1="146.69777"
       x2="52.929493"
       y2="234.28062"
       spreadMethod="reflect" />
    <linearGradient
       inkscape:collect="always"
       xlink:href="#linearGradient902"
       id="linearGradient918"
       gradientUnits="userSpaceOnUse"
       x1="58.877159"
       y1="146.69777"
       x2="52.929493"
       y2="234.28062"
       spreadMethod="reflect" />
    <linearGradient
       inkscape:collect="always"
       xlink:href="#linearGradient902"
       id="linearGradient920"
       gradientUnits="userSpaceOnUse"
       x1="58.877159"
       y1="146.69777"
       x2="52.929493"
       y2="234.28062"
       spreadMethod="reflect" />
    <linearGradient
       inkscape:collect="always"
       xlink:href="#linearGradient902"
       id="linearGradient922"
       gradientUnits="userSpaceOnUse"
       x1="58.877159"
       y1="146.69777"
       x2="52.929493"
       y2="234.28062"
       spreadMethod="reflect" />
    <linearGradient
       inkscape:collect="always"
       xlink:href="#linearGradient902"
       id="linearGradient924"
       gradientUnits="userSpaceOnUse"
       x1="58.877159"
       y1="146.69777"
       x2="52.929493"
       y2="234.28062"
       spreadMethod="reflect" />
  </defs>
  <sodipodi:namedview
     id="base"
     pagecolor="#ffffff"
     bordercolor="#666666"
     borderopacity="1.0"
     inkscape:pageopacity="0.0"
     inkscape:pageshadow="2"
     inkscape:zoom="0.76"
     inkscape:cx="272.18934"
     inkscape:cy="309.50562"
     inkscape:document-units="mm"
     inkscape:current-layer="layer1"
     showgrid="false"
     inkscape:window-width="1859"
     inkscape:window-height="1056"
     inkscape:window-x="61"
     inkscape:window-y="24"
     inkscape:window-maximized="1" />
  <metadata
     id="metadata5">
    <rdf:RDF>
      <cc:Work
         rdf:about="">
        <dc:format>image/svg+xml</dc:format>
        <dc:type
           rdf:resource="http://purl.org/dc/dcmitype/StillImage" />
        <dc:title></dc:title>
      </cc:Work>
    </rdf:RDF>
  </metadata>
  <g
     inkscape:label="Layer 1"
     inkscape:groupmode="layer"
     id="layer1"
     transform="translate(0,-94)">
    <g
       id="g896"
       style="stroke:url(#linearGradient904);stroke-linecap:butt"
       transform="translate(0.99993822,-1.0000066)">
      <g
         transform="translate(0,-35.976804)"
         style="fill:none;fill-opacity:1;stroke:url(#linearGradient910);stroke-width:2;stroke-miterlimit:4;stroke-dasharray:none;stroke-opacity:1;stroke-linecap:butt"
         id="g4614">
        <path
           style="opacity:1;fill:none;fill-opacity:1;fill-rule:nonzero;stroke:url(#linearGradient906);stroke-width:2;stroke-linecap:butt;stroke-linejoin:round;stroke-miterlimit:4;stroke-dasharray:none;stroke-opacity:1"
           d="m 50,197 50,100 H 55 l -5,-50 -5,50 H 0 Z"
           id="rect815"
           inkscape:connector-curvature="0"
           sodipodi:nodetypes="ccccccc" />
        <path
           style="fill:none;fill-opacity:1;stroke:url(#linearGradient908);stroke-width:2;stroke-linecap:butt;stroke-linejoin:miter;stroke-miterlimit:4;stroke-dasharray:none;stroke-opacity:1"
           d="m 50,132 c 14.094626,25.63408 -24.221479,26.36041 0,60 -15.341822,-32.00009 22.178994,-34.7079 0,-60 z"
           id="path4555"
           inkscape:connector-curvature="0"
           sodipodi:nodetypes="ccc" />
      </g>
      <g
         id="flowRoot4632"
         style="font-style:normal;font-variant:normal;font-weight:normal;font-stretch:normal;font-size:40px;line-height:1.25;font-family:Collegiate;-inkscape-font-specification:Collegiate;letter-spacing:0px;word-spacing:0px;fill:none;fill-opacity:1;stroke:url(#linearGradient924);stroke-width:1.89928746;stroke-miterlimit:4;stroke-dasharray:none;stroke-opacity:1;stroke-linecap:butt"
         transform="matrix(1.0530265,0,0,1.0530265,-358.98368,-219.16968)"
         aria-label="DIVINE">
        <path
           inkscape:connector-curvature="0"
           id="path4656"
           style="fill:none;fill-opacity:1;stroke:url(#linearGradient912);stroke-width:1.89928746;stroke-miterlimit:4;stroke-dasharray:none;stroke-opacity:1;stroke-linecap:butt"
           d="m 348.61086,463.4573 q 10.52,0 10.52,13.2 0,6.76 -1.72,9.76 -2.16,3.72 -7.84,3.72 h -8.36 q 0.16,-1 0.16,-3.76 v -19.12 q 0,-2.88 -0.16,-3.8 z m 5.56,11.6 q 0,-4 -1.4,-5.56 -1.52,-1.72 -5.52,-1.72 -0.4,0 -1,0 v 18 h 1.24 q 3.52,0 5.08,-1.48 1.6,-1.52 1.6,-5.04 z" />
        <path
           inkscape:connector-curvature="0"
           id="path4658"
           style="fill:none;fill-opacity:1;stroke:url(#linearGradient914);stroke-width:1.89928746;stroke-miterlimit:4;stroke-dasharray:none;stroke-opacity:1;stroke-linecap:butt"
           d="m 362.14461,490.1373 q 0.16,-1.04 0.16,-3.76 v -19.16 q 0,-2.96 -0.16,-3.76 h 5.44 q -0.16,0.92 -0.16,3.68 v 19.32 q 0,2.72 0.16,3.68 z" />
        <path
           inkscape:connector-curvature="0"
           id="path4660"
           style="fill:none;fill-opacity:1;stroke:url(#linearGradient916);stroke-width:1.89928746;stroke-miterlimit:4;stroke-dasharray:none;stroke-opacity:1;stroke-linecap:butt"
           d="m 382.92148,490.1373 h -5.88 l -7.08,-26.68 h 5.52 q 0,0.64 0.52,2.6 l 4.08,16.4 4.6,-16.4 q 0.56,-2 0.56,-2.6 h 4.76 z" />
        <path
           inkscape:connector-curvature="0"
           id="path4662"
           style="fill:none;fill-opacity:1;stroke:url(#linearGradient918);stroke-width:1.89928746;stroke-miterlimit:4;stroke-dasharray:none;stroke-opacity:1;stroke-linecap:butt"
           d="m 392.30086,490.1373 q 0.16,-1.04 0.16,-3.76 v -19.16 q 0,-2.96 -0.16,-3.76 h 5.44 q -0.16,0.92 -0.16,3.68 v 19.32 q 0,2.72 0.16,3.68 z" />
        <path
           inkscape:connector-curvature="0"
           id="path4664"
           style="fill:none;fill-opacity:1;stroke:url(#linearGradient920);stroke-width:1.89928746;stroke-miterlimit:4;stroke-dasharray:none;stroke-opacity:1;stroke-linecap:butt"
           d="m 413.51773,490.1773 q 0.2,-2.6 0.2,-4.16 -0.04,-1.04 0,-1.36 l -7.2,-11.64 v 12.68 q 0,2.52 0.16,4.48 h -5.08 q 0.16,-1.84 0.16,-4.88 v -19.64 l -1.2,-2.2 h 5.32 l 7.84,12.8 v -8.44 q 0,-2.36 -0.2,-4.44 h 5.04 q -0.12,2.04 -0.12,4.44 v 17.64 q 0,3.24 0.16,4.72 z" />
        <path
           inkscape:connector-curvature="0"
           id="path4666"
           style="fill:none;fill-opacity:1;stroke:url(#linearGradient922);stroke-width:1.89928746;stroke-miterlimit:4;stroke-dasharray:none;stroke-opacity:1;stroke-linecap:butt"
           d="m 422.53523,490.1373 q 0.16,-1 0.16,-3.04 v -20.16 q 0,-2.76 -0.16,-3.48 h 13.2 v 4.48 q -0.84,-0.12 -2.96,-0.12 h -5.2 v 6.24 h 3.8 q 1.72,0 2.68,-0.12 v 4.4 q -0.8,-0.12 -2.32,-0.12 h -4.16 v 7.56 h 5.64 q 1.68,0 2.96,-0.12 v 4.48 z" />
      </g>
    </g>
  </g>
</svg>
